<svg width="16" height="16" viewBox="0 0 16 16" fill="none" xmlns="http://www.w3.org/2000/svg">
<g clip-path="url(#clip0_6764_5849)">
<path d="M3.60431 2.44798V1.71859C3.60431 1.52199 3.44479 1.36247 3.24819 1.36247C3.05149 1.36247 2.89228 1.52199 2.89228 1.71859V8.9519C2.89228 8.98066 2.89659 9.00839 2.90291 9.03528C2.90251 9.62838 2.9023 10.2218 2.90213 10.7866H2.64928C2.11437 10.7866 1.67678 11.2065 1.64575 11.7339C1.64615 11.766 1.64656 11.7903 1.64697 11.8062C1.64717 11.8159 1.64554 11.8249 1.64496 11.8343C1.66658 12.3704 2.10825 12.7999 2.64931 12.7999H2.90278C2.90298 13.0669 2.90339 13.307 2.9038 13.5121H2.5954C2.57691 13.5121 2.55924 13.5095 2.54115 13.5067C1.64371 13.4507 0.930247 12.7049 0.930247 11.7934C0.930247 11.7727 0.93266 11.7526 0.933238 11.7319C0.922395 10.6743 0.933238 2.63119 0.934564 1.75584C0.933068 1.74347 0.930655 1.73143 0.930655 1.71876C0.930587 0.771003 1.70169 0 2.64948 0H3.21855H11.8537H11.9408C12.1374 0 12.2969 0.159415 12.2969 0.356117V1.7213H5.33483C4.65828 1.72086 4.0454 1.99986 3.60431 2.44798ZM4.42001 14.2215C4.42042 14.2536 4.42079 14.2782 4.4212 14.2939C4.4212 14.3035 4.4196 14.3128 4.41919 14.3224C4.44078 14.858 4.88248 15.2877 5.42375 15.2877H14.3595V14.3035C14.3595 14.1066 14.519 13.9473 14.7157 13.9473C14.9124 13.9473 15.0717 14.1066 15.0717 14.3035V15.644C15.0717 15.8404 14.9124 16 14.7157 16H5.3699C5.35111 16 5.33343 15.9974 5.31555 15.9944C4.41821 15.9383 3.70465 15.1925 3.70465 14.2812C3.70465 14.2605 3.70716 14.2403 3.70777 14.2196C3.69683 13.162 3.70777 5.11901 3.709 4.24363C3.70757 4.23105 3.70505 4.21912 3.70505 4.20634C3.70505 3.25876 4.47616 2.48769 5.42395 2.48769H5.99302H14.6283H14.7155C14.9122 2.48769 15.0715 2.6471 15.0715 2.8438V12.9088C15.0715 13.1053 14.9122 13.2648 14.7155 13.2648C14.7135 13.2648 14.7113 13.2642 14.7092 13.2642C14.6831 13.2705 14.656 13.2745 14.6279 13.2745H5.42354C4.8886 13.2745 4.45104 13.6944 4.42001 14.2215ZM5.66654 11.4396C5.66654 11.6363 5.82595 11.7958 6.02266 11.7958C6.21932 11.7958 6.37877 11.6363 6.37877 11.4396V4.2063C6.37877 4.0096 6.21936 3.85019 6.02266 3.85019C5.82595 3.85019 5.66654 4.0096 5.66654 4.2063V11.4396Z" fill="#3E8181"/>
</g>
<defs>
<clipPath id="clip0_6764_5849">
<rect width="16" height="16" fill="white"/>
</clipPath>
</defs>
</svg>
