<svg width="80" height="80" viewBox="0 0 80 80" fill="none" xmlns="http://www.w3.org/2000/svg">
<circle cx="40" cy="40" r="39.5" stroke="#DFE0EB"/>
<circle cx="40" cy="40" r="36" fill="#DFE0EB"/>
<path d="M40.5 42.0625C44.3818 42.0625 47.5312 38.9131 47.5312 35.0312C47.5312 31.1494 44.3818 28 40.5 28C36.6182 28 33.4688 31.1494 33.4688 35.0312C33.4688 38.9131 36.6182 42.0625 40.5 42.0625ZM46.75 43.625H44.0596C42.9756 44.123 41.7695 44.4062 40.5 44.4062C39.2305 44.4062 38.0293 44.123 36.9404 43.625H34.25C30.7979 43.625 28 46.4229 28 49.875V50.6562C28 51.9502 29.0498 53 30.3438 53H50.6562C51.9502 53 53 51.9502 53 50.6562V49.875C53 46.4229 50.2021 43.625 46.75 43.625Z" fill="white"/>
</svg>
