<svg width="16" height="16" viewBox="0 0 16 16" fill="none" xmlns="http://www.w3.org/2000/svg">
<path d="M15.7333 1.8667H0.266656C0.106656 1.8667 0 1.97339 0 2.13339V13.8667C0 14.0267 0.106656 14.1334 0.266656 14.1334H15.7333C15.8933 14.1334 16 14.0267 16 13.8667V2.13339C16 1.97339 15.8933 1.8667 15.7333 1.8667ZM15.4667 13.6H0.533344V2.40004H15.4667V13.6H15.4667Z" fill="#3E8181"/>
<path d="M3.73345 10.4H6.13345C6.29345 10.4 6.40011 10.2934 6.40011 10.1334C6.40011 9.97336 6.29345 9.8667 6.13345 9.8667H3.73345C3.57345 9.8667 3.4668 9.97336 3.4668 10.1334C3.4668 10.2934 3.57345 10.4 3.73345 10.4Z" fill="#3E8181"/>
<path d="M3.73345 11.7335H5.33345C5.49345 11.7335 5.60011 11.6269 5.60011 11.4669C5.60011 11.3069 5.49345 11.2002 5.33345 11.2002H3.73345C3.57345 11.2002 3.4668 11.3069 3.4668 11.4669C3.4668 11.6269 3.57345 11.7335 3.73345 11.7335Z" fill="#3E8181"/>
<path d="M1.33331 12C1.78665 12 2.13331 12.3467 2.13331 12.8C2.13331 12.96 2.23996 13.0667 2.39996 13.0667H13.6C13.76 13.0667 13.8666 12.96 13.8666 12.8C13.8666 12.3467 14.2133 12 14.6666 12C14.8266 12 14.9333 11.8933 14.9333 11.7333V4.26666C14.9333 4.10666 14.8266 4.00001 14.6666 4.00001C14.2133 4.00001 13.8666 3.65335 13.8666 3.20001C13.8666 3.04001 13.76 2.93335 13.6 2.93335H2.39996C2.23996 2.93335 2.13331 3.04001 2.13331 3.20001C2.13331 3.65335 1.78665 4.00001 1.33331 4.00001C1.17331 4.00001 1.06665 4.10666 1.06665 4.26666V11.7333C1.06662 11.8933 1.17331 12 1.33331 12ZM1.59996 4.50666C2.13331 4.40001 2.53331 4.00001 2.63996 3.46666H13.36C13.4666 4.00001 13.8666 4.40001 14.4 4.50666V11.4933C13.8666 11.6 13.4666 12 13.36 12.5333H2.63996C2.53331 12.0267 2.13331 11.6 1.59996 11.4933V4.50666Z" fill="#3E8181"/>
<path d="M12.2668 11.2H9.86675C9.70675 11.2 9.6001 11.3066 9.6001 11.4666C9.6001 11.6266 9.70675 11.7333 9.86675 11.7333H12.2668C12.4268 11.7333 12.5334 11.6266 12.5334 11.4666C12.5334 11.3066 12.4268 11.2 12.2668 11.2Z" fill="#3E8181"/>
<path d="M9.6534 10.5333C9.7334 10.6666 9.8934 10.6933 10.0267 10.6133L10.6401 10.1866C10.9867 10.48 11.3867 10.48 11.6534 10.4266L12.0801 10.8533C12.1334 10.9066 12.1867 10.9333 12.2667 10.9333C12.3467 10.9333 12.4001 10.9066 12.4801 10.8533C12.5867 10.7466 12.5867 10.5866 12.4801 10.48L11.9467 9.94662C11.8667 9.86662 11.7334 9.83996 11.6267 9.89327C11.6267 9.89327 11.2534 10.0799 10.8801 9.67993C10.8001 9.57327 10.6401 9.54659 10.5334 9.62659L9.73343 10.1599C9.60006 10.24 9.5734 10.4 9.6534 10.5333Z" fill="#3E8181"/>
<path d="M5.62675 8C5.6801 8.08 5.78675 8.13334 5.89341 8.13334L7.2001 8L7.73344 9.17334C7.78678 9.28 7.86678 9.33334 7.97344 9.33334C8.0801 9.33334 8.18678 9.28 8.21344 9.22669L8.74678 8.05334L10.0534 8.18669C10.1601 8.18669 10.2668 8.13334 10.3201 8.05334C10.3734 7.94669 10.3468 7.84 10.2934 7.76L9.5201 6.69334L10.2934 5.62669C10.3734 5.54669 10.3734 5.41334 10.3201 5.33334C10.2668 5.25334 10.1601 5.2 10.0534 5.2L8.74678 5.33334L8.21344 4.16C8.1601 4.05334 8.0801 4 7.97344 4C7.89344 4 7.78678 4.08 7.73344 4.16L7.2001 5.33334L5.89344 5.14669C5.78678 5.14669 5.6801 5.20003 5.62678 5.28003C5.57344 5.38669 5.60013 5.49338 5.65344 5.57338L6.42678 6.64003L5.65344 7.70669C5.57344 7.78666 5.57344 7.92 5.62675 8ZM6.98675 6.50666L6.45341 5.76L7.36006 5.86666C7.46672 5.86666 7.57341 5.81331 7.62672 5.70666L8.00006 4.90666L8.37341 5.70666C8.42675 5.81331 8.53341 5.86666 8.64006 5.86666L9.54672 5.76L9.01338 6.50666C8.93338 6.61331 8.93338 6.72 9.01338 6.82666L9.54672 7.57331L8.64006 7.46666C8.53341 7.46666 8.42672 7.52 8.37341 7.62666L8.0001 8.42666L7.62675 7.62666C7.57341 7.52 7.49341 7.46666 7.38675 7.46666C7.3601 7.46666 7.3601 7.46666 7.3601 7.46666L6.45344 7.57331L6.98678 6.82666C7.06675 6.72 7.06675 6.61334 6.98675 6.50666Z" fill="#3E8181"/>
</svg>
