<svg width="288" height="157" viewBox="0 0 288 157" fill="none" xmlns="http://www.w3.org/2000/svg">
<path d="M0 5C0 2.23857 2.23858 0 5 0H283C285.761 0 288 2.23858 288 5V157H0V5Z" fill="#FAFAFA"/>
<path d="M163.315 76.3972L144.722 83.4875L126.129 76.4997L125.07 86.2014C125.02 86.6001 125.16 86.9993 125.447 87.2806C125.734 87.5614 126.136 87.6922 126.533 87.6351C127.551 87.4867 128.592 87.4115 129.627 87.4115C135.806 87.4115 141.335 90.029 143.384 93.9247C143.607 94.3482 144.046 94.613 144.524 94.613H144.919C145.397 94.613 145.836 94.3482 146.058 93.9252C148.108 90.0296 153.637 87.412 159.815 87.412C160.852 87.412 161.893 87.4872 162.909 87.6356C162.972 87.6454 163.102 87.6485 163.105 87.649C163.817 87.649 164.446 87.1137 164.393 86.3611C164.386 86.2503 163.315 76.3972 163.315 76.3972Z" fill="#3E8181"/>
<path d="M168.165 69.0948L145.175 60.4421C144.882 60.3318 144.56 60.3318 144.267 60.4421L121.218 69.1175C120.716 69.3065 120.384 69.7867 120.384 70.323V85.9866H123.274V72.2579L144.268 80.159C144.56 80.2693 144.882 80.2693 145.176 80.159L168.166 71.5058C168.668 71.3167 169 70.8366 169 70.3003C169 69.764 168.667 69.2839 168.165 69.0948Z" fill="#3E8181"/>
<path d="M119.007 96.2174C118.969 96.5806 119.087 96.9427 119.331 97.2142C119.575 97.4852 119.923 97.6397 120.288 97.6397H123.37C123.734 97.6397 124.083 97.4847 124.327 97.2137C124.571 96.9427 124.689 96.5806 124.65 96.2168L123.809 88.2302H119.847L119.007 96.2174Z" fill="#3E8181"/>
</svg>
