<svg width="25" height="25" viewBox="0 0 25 25" fill="none" xmlns="http://www.w3.org/2000/svg">
<path d="M21.1854 8.40705C18.2995 5.96029 15.2962 4.66699 12.5 4.66699C9.70389 4.66699 6.70049 5.96029 3.81463 8.40705C1.66659 10.2283 0.343936 12.0285 0.288702 12.1043L0 12.4999L0.288702 12.8956C0.343936 12.9714 1.66668 14.7716 3.81463 16.5929C6.70049 19.0396 9.70379 20.3329 12.5 20.3329C15.2961 20.3329 18.2995 19.0396 21.1853 16.5929C23.3333 14.7716 24.656 12.9714 24.7112 12.8956L24.9999 12.4999L24.7112 12.1042C24.6561 12.0285 23.3333 10.2282 21.1854 8.40705ZM12.5 18.9901C7.32919 18.9901 2.87189 13.9639 1.68325 12.4995C2.87046 11.0342 7.32005 6.0097 12.5 6.0097C17.6707 6.0097 22.128 11.0359 23.3167 12.5003C22.1294 13.9656 17.6799 18.9901 12.5 18.9901ZM12.5 7.32135C9.64444 7.32135 7.32122 9.64449 7.32122 12.5C7.32122 15.3555 9.64435 17.6786 12.5 17.6786C15.3556 17.6786 17.6787 15.3555 17.6787 12.5C17.6787 9.64449 15.3556 7.32135 12.5 7.32135ZM12.5 16.3358C10.3849 16.3358 8.66402 14.615 8.66402 12.4999C8.66402 10.3848 10.3848 8.66406 12.5 8.66406C14.6151 8.66406 16.3359 10.3848 16.3359 12.4999C16.3359 14.615 14.6151 16.3358 12.5 16.3358ZM14.6625 11.6913C14.8011 11.993 14.8789 12.3286 14.8789 12.6824C14.8789 13.9962 13.8138 15.0614 12.4999 15.0614C11.186 15.0614 10.1209 13.9962 10.1209 12.6824C10.1209 12.3286 10.1988 11.993 10.3373 11.6913C10.7133 12.5099 11.5399 13.079 12.4999 13.079C13.4598 13.079 14.2865 12.51 14.6625 11.6913Z" fill="#9A9A9A"/>
</svg>
