<svg width="100" height="100" viewBox="0 0 100 100" fill="none" xmlns="http://www.w3.org/2000/svg">
<path d="M50 1.5625C23.2422 1.5625 1.5625 23.2422 1.5625 50C1.5625 76.7578 23.2422 98.4375 50 98.4375C76.7578 98.4375 98.4375 76.7578 98.4375 50C98.4375 23.2422 76.7578 1.5625 50 1.5625ZM73.75 62.7148C74.668 63.6328 74.668 65.1172 73.75 66.0352L66.0156 73.75C65.0977 74.668 63.6133 74.668 62.6953 73.75L50 60.9375L37.2852 73.75C36.3672 74.668 34.8828 74.668 33.9648 73.75L26.25 66.0156C25.332 65.0977 25.332 63.6133 26.25 62.6953L39.0625 50L26.25 37.2852C25.332 36.3672 25.332 34.8828 26.25 33.9648L33.9844 26.2305C34.9023 25.3125 36.3867 25.3125 37.3047 26.2305L50 39.0625L62.7148 26.25C63.6328 25.332 65.1172 25.332 66.0352 26.25L73.7695 33.9844C74.6875 34.9023 74.6875 36.3867 73.7695 37.3047L60.9375 50L73.75 62.7148Z" fill="#FF0000"/>
</svg>
