<svg width="33" height="32" viewBox="0 0 33 32" fill="none" xmlns="http://www.w3.org/2000/svg">
<path d="M16.4999 0C25.6131 0 33 7.04446 33 15.7331C33 24.4227 25.6131 31.4661 16.4999 31.4661C7.38674 31.4661 0 24.4226 0 15.7331C0 7.04446 7.38685 0 16.4999 0Z" fill="#F14336"/>
<g clip-path="url(#clip0_755_4817)">
<path d="M10.9277 13.3845L7.51524 11.5059C6.85586 12.7764 6.48246 14.2093 6.48242 15.7327C6.48242 17.2351 6.85985 18.6704 7.52937 19.9522L10.9275 18.0815C10.5923 17.3619 10.4024 16.5682 10.4025 15.7327C10.4025 14.8973 10.5925 14.1038 10.9277 13.3845Z" fill="white"/>
<path d="M23.0714 8.52273C21.3108 7.06252 19.0103 6.17906 16.4932 6.18067C13.0495 6.18287 9.97584 7.85919 8.16992 10.4278L11.5852 12.308C12.6958 10.8634 14.4825 9.91842 16.5002 9.91846C17.9711 9.91849 19.3194 10.4198 20.3725 11.2506C20.6303 11.4539 21.0072 11.4353 21.2437 11.2097L23.1037 9.43619C23.3719 9.18044 23.3576 8.76004 23.0714 8.52273Z" fill="white"/>
<path d="M26.4492 14.6273C26.4102 14.3111 26.1314 14.0717 25.7976 14.0717L17.5889 14.0713C17.2281 14.0713 16.9355 14.3502 16.9355 14.6943V17.184C16.9355 17.5281 17.2281 17.807 17.5889 17.807H22.1888C21.7651 18.8585 21.0292 19.7623 20.0923 20.4194L22.0461 23.6462C24.0127 22.3754 25.508 20.4542 26.1666 18.1861C26.5247 16.953 26.5891 15.7605 26.4492 14.6273Z" fill="white"/>
<path d="M18.9633 21.0455C18.2098 21.3656 17.378 21.5471 16.5008 21.5472C14.4808 21.5472 12.6951 20.6022 11.5853 19.1582L8.18457 21.0303C9.97534 23.5737 13.0146 25.285 16.5007 25.285C18.0767 25.285 19.5766 24.9176 20.9183 24.2744L18.9633 21.0455Z" fill="white"/>
</g>
<defs>
<clipPath id="clip0_755_4817">
<rect width="20.0357" height="19.1042" fill="white" transform="translate(6.48242 6.18066)"/>
</clipPath>
</defs>
</svg>
