<svg width="25" height="20" viewBox="0 0 25 20" fill="none" xmlns="http://www.w3.org/2000/svg">
<path opacity="0.5" d="M17.7693 13.1246L17.2761 12.7433L15.741 11.5566L15.4568 11.337L15.5743 10.9975C15.6861 10.6744 15.7454 10.3354 15.75 9.99352L17.7693 13.1246ZM17.7693 13.1246L18.0345 12.5604M17.7693 13.1246L18.0345 12.5604M18.0345 12.5604C18.3975 11.788 18.6249 10.9286 18.6249 10.0004M18.0345 12.5604L18.6249 10.0004M12.2559 6.76321C12.5471 6.73647 12.8416 6.74966 13.1311 6.80322C13.6234 6.8943 14.0875 7.09957 14.4861 7.40254C14.8847 7.70552 15.2066 8.09775 15.4261 8.54773C15.6456 8.99769 15.7565 9.49285 15.75 9.99344L12.2559 6.76321ZM12.2559 6.76321C12.3338 6.99923 12.3745 7.24754 12.3749 7.49922L12.3749 7.51069L12.3744 7.52216C12.367 7.69039 12.3413 7.85731 12.2978 8.01998L12.1035 8.74582L11.509 8.28635L8.63361 6.06408L8.14142 5.68368L8.61875 5.28479C9.70741 4.37503 11.0808 3.87615 12.4995 3.8751L12.4996 3.8751C13.3041 3.87466 14.1009 4.03279 14.8442 4.34045C15.5876 4.64812 16.263 5.09928 16.8319 5.66816C17.4007 6.23703 17.8519 6.91245 18.1596 7.65581C18.4672 8.39916 18.6254 9.19587 18.6249 10.0004M12.2559 6.76321L18.6249 10.0004M12.4999 16.1251L12.5046 16.1251C12.7991 16.1223 13.0929 16.0984 13.3838 16.0534L14.3887 16.831C13.7708 16.939 13.1415 17.0001 12.4999 17.0001C7.89951 17.0001 3.87084 14.3215 1.83152 10.3437C1.77788 10.2372 1.74994 10.1196 1.74994 10.0003C1.74994 9.88098 1.77789 9.76333 1.83156 9.65678C2.13741 9.05964 2.5044 8.49905 2.90962 7.95969L6.44053 10.6885C6.78431 13.7424 9.34685 16.1251 12.4999 16.1251ZM20.1179 14.1748L19.6443 14.574L20.1344 14.9528L24.4518 18.2895C24.4519 18.2896 24.452 18.2897 24.4521 18.2898C24.4781 18.3101 24.495 18.3399 24.4991 18.3726C24.5032 18.4055 24.4941 18.4387 24.4738 18.4649L23.7067 19.4519L23.7067 19.4519C23.6966 19.4649 23.6841 19.4757 23.6698 19.4838C23.6555 19.492 23.6398 19.4972 23.6235 19.4992C23.6072 19.5013 23.5906 19.5001 23.5748 19.4957C23.559 19.4914 23.5442 19.4839 23.5312 19.4739L23.5299 19.4728L0.548266 1.71088C0.548144 1.71078 0.548022 1.71068 0.5479 1.71059C0.521941 1.69025 0.505068 1.66046 0.50097 1.62773C0.496853 1.59483 0.505969 1.56166 0.526313 1.53548L0.526417 1.53535L1.29317 0.548302C1.29318 0.548282 1.2932 0.548261 1.29321 0.548241C1.30328 0.5353 1.3158 0.524467 1.33005 0.516357C1.34432 0.508236 1.36006 0.503006 1.37635 0.500967C1.39265 0.498928 1.40919 0.500121 1.42502 0.504476C1.44085 0.508831 1.45568 0.516263 1.46864 0.526349L1.46863 0.526351L1.46993 0.52735L6.43946 4.36837L6.69804 4.56823L6.98487 4.41159C8.67652 3.48777 10.5727 3.0025 12.5001 3.0001C17.1005 3.00018 21.1292 5.67882 23.1684 9.65666C23.222 9.76314 23.2499 9.88069 23.2499 9.99991C23.2499 10.1191 23.222 10.2367 23.1684 10.3432C22.4155 11.8099 21.3786 13.1124 20.1179 14.1748Z" stroke="#393939"/>
</svg>
