<svg width="32" height="32" viewBox="0 0 32 32" fill="none" xmlns="http://www.w3.org/2000/svg">
<rect width="32" height="32" rx="4" fill="white"/>
<path d="M11.8584 23.3185V12.9831H8.21496V23.3185H11.8584ZM10.0371 11.5712C11.3077 11.5712 12.0985 10.7775 12.0985 9.78576C12.0748 8.77161 11.3077 8 10.0613 8C8.81498 8 8 8.77162 8 9.78576C8 10.7776 8.79065 11.5712 10.0134 11.5712H10.037H10.0371ZM13.875 23.3185H17.5184V17.5467C17.5184 17.2378 17.5421 16.9293 17.6383 16.7085C17.9017 16.0913 18.5012 15.4521 19.5077 15.4521C20.8261 15.4521 21.3535 16.3999 21.3535 17.7892V23.3184H24.9967V17.3922C24.9967 14.2176 23.1992 12.7405 20.8021 12.7405C18.8366 12.7405 17.9736 13.7764 17.4942 14.4819H17.5185V12.9829H13.8751C13.9229 13.9527 13.8751 23.3183 13.8751 23.3183L13.875 23.3185Z" fill="#4F5D5A"/>
</svg>
