<svg width="32" height="32" viewBox="0 0 32 32" fill="none" xmlns="http://www.w3.org/2000/svg">
<rect width="32" height="32" rx="4" fill="white"/>
<path d="M23.2526 11.7383C23.2634 11.9023 23.2634 12.0664 23.2634 12.2305C23.2634 17.2344 19.7577 23 13.3503 23C11.3763 23 9.54252 22.3789 8 21.3008C8.28047 21.3359 8.55011 21.3477 8.84137 21.3477C10.4702 21.3477 11.9695 20.75 13.1669 19.7305C11.6352 19.6953 10.3515 18.6055 9.90925 17.1055C10.125 17.1406 10.3407 17.164 10.5673 17.164C10.8801 17.164 11.1929 17.1172 11.4842 17.0352C9.8877 16.6836 8.69033 15.1601 8.69033 13.3203V13.2734C9.15415 13.5547 9.69353 13.7305 10.2652 13.7539C9.32674 13.0742 8.71191 11.914 8.71191 10.6015C8.71191 9.89842 8.88447 9.25389 9.18652 8.69139C10.9016 10.9883 13.4797 12.4882 16.3705 12.6523C16.3166 12.3711 16.2842 12.0781 16.2842 11.7852C16.2842 9.6992 17.8376 8 19.7684 8C20.7716 8 21.6776 8.45703 22.3141 9.19531C23.1015 9.03126 23.8566 8.71484 24.5254 8.28125C24.2665 9.16018 23.7164 9.89846 22.9937 10.3672C23.6948 10.2852 24.3744 10.0742 25 9.78126C24.5255 10.5312 23.9322 11.1992 23.2526 11.7383Z" fill="#4F5D5A"/>
</svg>
