<svg width="33" height="32" viewBox="0 0 33 32" fill="none" xmlns="http://www.w3.org/2000/svg">
<path d="M16.4999 0C25.6131 0 33 7.04446 33 15.7331C33 24.4227 25.6131 31.4661 16.4999 31.4661C7.38674 31.4661 0 24.4226 0 15.7331C0 7.04446 7.38685 0 16.4999 0Z" fill="#26A6D1"/>
<path d="M26.8156 10.5989C26.0948 10.8959 25.3192 11.0955 24.5056 11.186C25.3368 10.7248 25.9741 9.9961 26.2742 9.12594C25.4967 9.55367 24.6366 9.86346 23.7198 10.0296C22.9865 9.30686 21.9419 8.85547 20.7849 8.85547C18.5656 8.85547 16.7651 10.5203 16.7651 12.5754C16.7651 12.8674 16.8002 13.1516 16.8692 13.424C13.528 13.2687 10.5642 11.7868 8.58213 9.53596C8.23561 10.0856 8.0376 10.7238 8.0376 11.4062C8.0376 12.6963 8.74706 13.837 9.8258 14.5028C9.16585 14.4831 8.54701 14.3169 8.00362 14.0367V14.0839C8.00362 15.8873 9.38957 17.3908 11.2293 17.733C10.8921 17.8176 10.5373 17.8638 10.1702 17.8638C9.91133 17.8638 9.65974 17.8413 9.41427 17.797C9.92572 19.2759 11.4108 20.3516 13.1711 20.3812C11.7945 21.3802 10.0609 21.9742 8.17682 21.9742C7.85194 21.9742 7.53227 21.9565 7.21667 21.9221C8.99763 22.9782 11.1097 23.5947 13.3815 23.5947C20.7776 23.5947 24.8222 17.9229 24.8222 13.0062L24.8109 12.5244C25.5945 12.0012 26.2763 11.3463 26.8156 10.5989Z" fill="white"/>
</svg>
