<svg width="22" height="22" viewBox="0 0 22 22" fill="none" xmlns="http://www.w3.org/2000/svg">
<path d="M20.4293 15.1325L16.0543 13.2575C15.8674 13.1778 15.6597 13.161 15.4624 13.2096C15.2652 13.2582 15.089 13.3696 14.9605 13.527L13.023 15.8942C9.98232 14.4605 7.53524 12.0134 6.10156 8.97269L8.46875 7.03519C8.62644 6.90694 8.73804 6.73081 8.78668 6.53345C8.83531 6.3361 8.81832 6.12828 8.73828 5.94144L6.86328 1.56644C6.77544 1.36504 6.62007 1.2006 6.42397 1.10148C6.22787 1.00236 6.00332 0.974773 5.78906 1.02347L1.72656 1.96097C1.51999 2.00868 1.33568 2.12499 1.20372 2.29093C1.07177 2.45687 0.999952 2.66264 1 2.87465C1 12.8942 9.12109 20.9996 19.125 20.9996C19.3371 20.9998 19.5429 20.928 19.709 20.796C19.875 20.6641 19.9913 20.4797 20.0391 20.2731L20.9766 16.2106C21.0249 15.9953 20.9968 15.7698 20.8969 15.5731C20.797 15.3763 20.6317 15.2205 20.4293 15.1325V15.1325Z" fill="#3E8181"/>
<path d="M20.4293 15.1325L16.0543 13.2575C15.8674 13.1778 15.6597 13.161 15.4624 13.2096C15.2652 13.2582 15.089 13.3696 14.9605 13.527L13.023 15.8942C9.98232 14.4605 7.53524 12.0134 6.10156 8.97269L8.46875 7.03519C8.62644 6.90694 8.73804 6.73081 8.78668 6.53345C8.83531 6.3361 8.81832 6.12828 8.73828 5.94144L6.86328 1.56644C6.77544 1.36504 6.62007 1.2006 6.42397 1.10148C6.22787 1.00236 6.00332 0.974773 5.78906 1.02347L1.72656 1.96097C1.51999 2.00868 1.33568 2.12499 1.20372 2.29093C1.07177 2.45687 0.999952 2.66264 1 2.87465C1 12.8942 9.12109 20.9996 19.125 20.9996C19.3371 20.9998 19.5429 20.928 19.709 20.796C19.875 20.6641 19.9913 20.4797 20.0391 20.2731L20.9766 16.2106C21.0249 15.9953 20.9968 15.7698 20.8969 15.5731C20.797 15.3763 20.6317 15.2205 20.4293 15.1325V15.1325Z" fill="black" fill-opacity="0.2"/>
</svg>
