<svg width="16" height="20" viewBox="0 0 16 20" fill="none" xmlns="http://www.w3.org/2000/svg">
<path d="M7.99193 0.000146135C4.46891 -0.0200018 1.22416 2.0458 0.26657 5.17941C0.0503546 5.88695 -0.0035553 6.58285 0.00017793 7.24969C0.0134271 9.61618 1.45585 11.6607 3.08386 13.6455C4.71188 15.6303 6.546 17.5836 7.52372 19.7212C7.56316 19.8038 7.62939 19.8743 7.71411 19.9239C7.79884 19.9735 7.89829 20 8 20C8.10171 20 8.20116 19.9735 8.28589 19.9239C8.37061 19.8743 8.43684 19.8038 8.47628 19.7212C9.454 17.5836 11.2881 15.6303 12.9161 13.6455C14.5442 11.6607 15.9866 9.61618 15.9998 7.24969C16.0036 6.58285 15.9496 5.88695 15.7334 5.17941C14.7758 2.0458 11.5311 -0.0200063 8.00807 0.000146135C8.00266 0.000178007 7.99734 0.000105156 7.99193 0.000146135ZM7.99193 0.910786C7.99731 0.91086 8.00269 0.91086 8.00807 0.910786C11.0739 0.887664 13.8961 2.67722 14.7324 5.41418C14.9159 6.01469 14.97 6.63193 14.9665 7.24969C14.9551 9.28812 13.6754 11.1628 12.0766 13.1119C10.6817 14.8125 9.09654 16.5617 8 18.5189C6.90346 16.5617 5.31825 14.8125 3.9234 13.1119C2.32464 11.1628 1.04487 9.28812 1.03345 7.24969C1.03 6.63193 1.08405 6.01469 1.26756 5.41418C2.10394 2.67722 4.92609 0.887664 7.99193 0.910786ZM7.98385 4.06957C6.1592 4.06752 4.66375 5.38037 4.66607 6.98646C4.66839 8.59255 6.16727 9.9013 7.99193 9.90335C9.81658 9.90563 11.304 8.59966 11.3016 6.99357C11.2993 5.38748 9.80851 4.07162 7.98385 4.06957ZM7.98385 4.98021C9.24974 4.98157 10.2668 5.87937 10.2684 6.99357C10.27 8.10778 9.24974 8.99414 7.98385 8.99271C6.71797 8.99135 5.70095 8.10066 5.69934 6.98646C5.69774 5.87226 6.71797 4.97878 7.98385 4.98021Z" fill="#3E8181"/>
</svg>
