<svg width="22" height="22" viewBox="0 0 22 22" fill="none" xmlns="http://www.w3.org/2000/svg">
<path d="M10.7292 19.7619C5.05352 11.8842 4 11.0757 4 8.18057C4 4.21484 7.35785 1 11.5 1C15.6421 1 19 4.21484 19 8.18057C19 11.0757 17.9465 11.8842 12.2708 19.7619C11.8983 20.277 11.1016 20.277 10.7292 19.7619ZM11.5 11.1725C13.2259 11.1725 14.625 9.83296 14.625 8.18057C14.625 6.52818 13.2259 5.18867 11.5 5.18867C9.7741 5.18867 8.375 6.52818 8.375 8.18057C8.375 9.83296 9.7741 11.1725 11.5 11.1725Z" fill="#3E8181"/>
<path d="M10.7292 19.7619C5.05352 11.8842 4 11.0757 4 8.18057C4 4.21484 7.35785 1 11.5 1C15.6421 1 19 4.21484 19 8.18057C19 11.0757 17.9465 11.8842 12.2708 19.7619C11.8983 20.277 11.1016 20.277 10.7292 19.7619ZM11.5 11.1725C13.2259 11.1725 14.625 9.83296 14.625 8.18057C14.625 6.52818 13.2259 5.18867 11.5 5.18867C9.7741 5.18867 8.375 6.52818 8.375 8.18057C8.375 9.83296 9.7741 11.1725 11.5 11.1725Z" fill="black" fill-opacity="0.2"/>
</svg>
