<svg width="22" height="22" viewBox="0 0 22 22" fill="none" xmlns="http://www.w3.org/2000/svg">
<path d="M20.6211 8.95313C20.7734 8.83203 21 8.94531 21 9.13672V17.125C21 18.1602 20.1602 19 19.125 19H2.875C1.83984 19 1 18.1602 1 17.125V9.14063C1 8.94531 1.22266 8.83594 1.37891 8.95703C2.25391 9.63672 3.41406 10.5 7.39844 13.3945C8.22266 13.9961 9.61328 15.2617 11 15.2539C12.3945 15.2656 13.8125 13.9727 14.6055 13.3945C18.5898 10.5 19.7461 9.63281 20.6211 8.95313ZM11 14C11.9063 14.0156 13.2109 12.8594 13.8672 12.3828C19.0508 8.62109 19.4453 8.29297 20.6406 7.35547C20.8672 7.17969 21 6.90625 21 6.61719V5.875C21 4.83984 20.1602 4 19.125 4H2.875C1.83984 4 1 4.83984 1 5.875V6.61719C1 6.90625 1.13281 7.17578 1.35937 7.35547C2.55469 8.28906 2.94922 8.62109 8.13281 12.3828C8.78906 12.8594 10.0937 14.0156 11 14Z" fill="#3E8181"/>
<path d="M20.6211 8.95313C20.7734 8.83203 21 8.94531 21 9.13672V17.125C21 18.1602 20.1602 19 19.125 19H2.875C1.83984 19 1 18.1602 1 17.125V9.14063C1 8.94531 1.22266 8.83594 1.37891 8.95703C2.25391 9.63672 3.41406 10.5 7.39844 13.3945C8.22266 13.9961 9.61328 15.2617 11 15.2539C12.3945 15.2656 13.8125 13.9727 14.6055 13.3945C18.5898 10.5 19.7461 9.63281 20.6211 8.95313ZM11 14C11.9063 14.0156 13.2109 12.8594 13.8672 12.3828C19.0508 8.62109 19.4453 8.29297 20.6406 7.35547C20.8672 7.17969 21 6.90625 21 6.61719V5.875C21 4.83984 20.1602 4 19.125 4H2.875C1.83984 4 1 4.83984 1 5.875V6.61719C1 6.90625 1.13281 7.17578 1.35937 7.35547C2.55469 8.28906 2.94922 8.62109 8.13281 12.3828C8.78906 12.8594 10.0937 14.0156 11 14Z" fill="black" fill-opacity="0.2"/>
</svg>
