<svg width="26" height="26" viewBox="0 0 26 26" fill="none" xmlns="http://www.w3.org/2000/svg">
<g clip-path="url(#clip0_1414_3826)">
<path d="M13.0698 1.35107C6.38037 1.35107 0.960449 6.771 0.960449 13.4604C0.960449 20.1499 6.38037 25.5698 13.0698 25.5698C19.7593 25.5698 25.1792 20.1499 25.1792 13.4604C25.1792 6.771 19.7593 1.35107 13.0698 1.35107ZM6.62451 15.4136C6.30225 15.4136 6.03857 15.1499 6.03857 14.8276V12.0933C6.03857 11.771 6.30225 11.5073 6.62451 11.5073H19.5151C19.8374 11.5073 20.1011 11.771 20.1011 12.0933V14.8276C20.1011 15.1499 19.8374 15.4136 19.5151 15.4136H6.62451Z" fill="#3E8181"/>
</g>
<defs>
<clipPath id="clip0_1414_3826">
<rect width="25" height="25" fill="white" transform="translate(0.569824 0.960449)"/>
</clipPath>
</defs>
</svg>
