<svg width="10" height="10" viewBox="0 0 10 10" fill="none" xmlns="http://www.w3.org/2000/svg">
<path d="M0.859375 3.75H9.14062C9.26953 3.75 9.375 3.85547 9.375 3.98438V9.0625C9.375 9.58008 8.95508 10 8.4375 10H1.5625C1.04492 10 0.625 9.58008 0.625 9.0625V3.98438C0.625 3.85547 0.730469 3.75 0.859375 3.75ZM9.375 2.89062V2.1875C9.375 1.66992 8.95508 1.25 8.4375 1.25H7.5V0.234375C7.5 0.105469 7.39453 0 7.26562 0H6.48438C6.35547 0 6.25 0.105469 6.25 0.234375V1.25H3.75V0.234375C3.75 0.105469 3.64453 0 3.51562 0H2.73438C2.60547 0 2.5 0.105469 2.5 0.234375V1.25H1.5625C1.04492 1.25 0.625 1.66992 0.625 2.1875V2.89062C0.625 3.01953 0.730469 3.125 0.859375 3.125H9.14062C9.26953 3.125 9.375 3.01953 9.375 2.89062Z" fill="#3E8181"/>
</svg>
