<svg width="26" height="25" viewBox="0 0 26 25" fill="none" xmlns="http://www.w3.org/2000/svg">
<path d="M2.20991 9.375H23.5063C23.8378 9.375 24.109 9.63867 24.109 9.96094V22.6562C24.109 23.9502 23.0291 25 21.6981 25H4.01809C2.68706 25 1.60718 23.9502 1.60718 22.6562V9.96094C1.60718 9.63867 1.87841 9.375 2.20991 9.375ZM24.109 7.22656V5.46875C24.109 4.1748 23.0291 3.125 21.6981 3.125H19.2872V0.585938C19.2872 0.263672 19.016 0 18.6845 0H16.6754C16.3439 0 16.0726 0.263672 16.0726 0.585938V3.125H9.64355V0.585938C9.64355 0.263672 9.37232 0 9.04082 0H7.03173C6.70023 0 6.429 0.263672 6.429 0.585938V3.125H4.01809C2.68706 3.125 1.60718 4.1748 1.60718 5.46875V7.22656C1.60718 7.54883 1.87841 7.8125 2.20991 7.8125H23.5063C23.8378 7.8125 24.109 7.54883 24.109 7.22656Z" fill="#3E8181"/>
</svg>
