<svg width="22" height="22" viewBox="0 0 22 22" fill="none" xmlns="http://www.w3.org/2000/svg">
<path d="M15.9334 21C15.5661 20.9387 15.1962 20.8906 14.8316 20.8133C13.4716 20.4788 12.1683 19.9477 10.9632 19.2369C9.06646 18.1882 7.34756 16.8488 5.86964 15.268C4.07081 13.3236 2.57492 11.1817 1.63128 8.69051C1.26564 7.79422 1.05534 6.84275 1.00933 5.87653C0.974093 5.40392 1.03892 4.92921 1.19962 4.48309C1.36032 4.03697 1.61331 3.62936 1.94225 3.2866C2.50522 2.71314 3.04942 2.11834 3.65529 1.59555C4.59089 0.795366 5.6096 0.795366 6.51303 1.63289C7.4674 2.52376 8.3896 3.45998 9.27694 4.4122C9.60254 4.76141 9.78346 5.22015 9.78346 5.69649C9.78346 6.17283 9.60254 6.63157 9.27694 6.98079C8.80512 7.51424 8.28236 7.99969 7.78373 8.50914C7.73816 8.55181 7.68991 8.58915 7.6068 8.66384C8.93842 11.0621 10.9269 13.035 13.3411 14.3531L14.5313 13.1555C14.8237 12.8119 15.1902 12.5384 15.6037 12.3554C15.9283 12.2148 16.2875 12.1728 16.6361 12.2345C16.9847 12.2962 17.3072 12.4588 17.5633 12.7021C18.5624 13.6481 19.5364 14.6208 20.4854 15.6201C20.8071 15.9631 20.9902 16.4123 20.9996 16.8814C21.009 17.3505 20.844 17.8065 20.5363 18.162C19.9358 18.8662 19.271 19.533 18.5981 20.1785C18.119 20.6169 17.509 20.8876 16.861 20.9493C16.8147 20.9602 16.769 20.9735 16.7242 20.9893L15.9334 21ZM16.231 19.7971C16.5612 19.8151 16.8914 19.762 17.1991 19.6414C17.5067 19.5208 17.7846 19.3355 18.0137 19.0982C18.4641 18.6288 18.9252 18.17 19.3809 17.7059C19.4398 17.6468 19.4953 17.5845 19.5471 17.5192C19.6247 17.4415 19.6858 17.349 19.7267 17.2474C19.7676 17.1457 19.7875 17.0368 19.7853 16.9273C19.783 16.8178 19.7587 16.7099 19.7136 16.6099C19.6685 16.51 19.6037 16.4201 19.523 16.3456C19.1557 15.9508 18.767 15.5774 18.3863 15.196C17.8904 14.7026 17.3998 14.2064 16.8985 13.721C16.8255 13.6394 16.7365 13.5735 16.637 13.5274C16.5374 13.4813 16.4294 13.456 16.3197 13.453C16.2099 13.45 16.1007 13.4694 15.9988 13.51C15.8968 13.5506 15.8043 13.6115 15.727 13.689C15.6519 13.7503 15.5849 13.8197 15.5152 13.889C15.038 14.3611 14.5662 14.8386 14.0863 15.3054C13.9479 15.4635 13.7586 15.5688 13.5508 15.6033C13.3429 15.6379 13.1295 15.5995 12.947 15.4947C12.6548 15.348 12.3652 15.2013 12.0838 15.036C10.8441 14.2818 9.72231 13.3508 8.75419 12.2727C7.85682 11.3582 7.11281 10.3064 6.55056 9.15728C6.2664 8.53314 6.32805 8.22907 6.81864 7.7543C7.30923 7.27952 7.83467 6.7754 8.3199 6.26329C8.39832 6.19318 8.46138 6.10774 8.50512 6.01229C8.54886 5.91684 8.57234 5.81345 8.5741 5.70856C8.57586 5.60368 8.55586 5.49956 8.51535 5.40271C8.47484 5.30586 8.41469 5.21837 8.33866 5.1457C8.27968 5.07635 8.21802 5.01233 8.15637 4.94832L5.80262 2.59578C5.29862 2.10233 4.85093 2.097 4.34694 2.59578C3.84294 3.09456 3.36844 3.53466 2.91002 4.03344C2.68405 4.26565 2.50238 4.53678 2.37386 4.83363C2.1724 5.47056 2.16401 6.15243 2.34973 6.79408C2.57287 7.7906 2.92428 8.75433 3.39525 9.6614C4.20331 11.2609 5.22799 12.7426 6.44065 14.0651C8.52758 16.4282 11.1686 18.2423 14.1292 19.3463C14.8029 19.5996 15.5118 19.7481 16.231 19.7864V19.7971Z" fill="#3E8181" stroke="white" stroke-width="0.5"/>
</svg>
