<svg width="24" height="24" viewBox="0 0 24 24" fill="none" xmlns="http://www.w3.org/2000/svg">
<path d="M23.625 12C23.625 18.4219 18.4219 23.625 12 23.625C5.57812 23.625 0.375 18.4219 0.375 12C0.375 5.57812 5.57812 0.375 12 0.375C18.4219 0.375 23.625 5.57812 23.625 12ZM9.9375 6.5625V12H6.61406C6.1125 12 5.85938 12.6094 6.21563 12.9609L11.6016 18.3187C11.8219 18.5391 12.1734 18.5391 12.3937 18.3187L17.7797 12.9609C18.1359 12.6047 17.8828 12 17.3812 12H14.0625V6.5625C14.0625 6.25313 13.8094 6 13.5 6H10.5C10.1906 6 9.9375 6.25313 9.9375 6.5625Z" fill="#3E8181"/>
</svg>
