<svg width="16" height="16" viewBox="0 0 16 16" fill="none" xmlns="http://www.w3.org/2000/svg">
<g clip-path="url(#clip0_618_8170)">
<path d="M15.37 10.8959L9.22939 13.9528C9.15697 13.9839 9.07898 13.9999 9.00017 13.9999C8.92136 13.9999 8.84338 13.9839 8.77095 13.9528L2.63002 10.8959C2.50502 10.8334 2.50502 10.7309 2.63002 10.6681L4.10064 9.93746C4.17317 9.90638 4.25126 9.89036 4.33017 9.89036C4.40908 9.89036 4.48717 9.90638 4.5597 9.93746L8.77095 12.0312C8.84334 12.0625 8.92134 12.0786 9.00017 12.0786C9.07901 12.0786 9.15701 12.0625 9.22939 12.0312L13.4406 9.93746C13.5131 9.90637 13.5912 9.89034 13.67 9.89034C13.7489 9.89034 13.8269 9.90637 13.8994 9.93746L15.37 10.6696C15.4966 10.7309 15.4966 10.8334 15.37 10.8959ZM15.37 6.62934L13.8994 5.89715C13.8269 5.86606 13.7489 5.85003 13.67 5.85003C13.5912 5.85003 13.5131 5.86606 13.4406 5.89715L9.22939 7.9934C9.15693 8.02434 9.07896 8.04028 9.00017 8.04028C8.92139 8.04028 8.84341 8.02434 8.77095 7.9934L4.5597 5.89715C4.48717 5.86607 4.40908 5.85005 4.33017 5.85005C4.25126 5.85005 4.17317 5.86607 4.10064 5.89715L2.63002 6.62934C2.50502 6.69184 2.50502 6.79465 2.63002 6.85777L8.77095 9.91402C8.84338 9.9451 8.92136 9.96113 9.00017 9.96113C9.07898 9.96113 9.15697 9.9451 9.22939 9.91402L15.37 6.85777C15.4966 6.79465 15.4966 6.69215 15.37 6.62934V6.62934ZM2.63002 3.07559L8.77064 5.89715C8.91799 5.95497 9.08174 5.95497 9.22908 5.89715L15.37 3.07559C15.495 3.01746 15.495 2.92277 15.37 2.86496L9.22908 0.043711C9.08186 -0.0147331 8.91787 -0.0147331 8.77064 0.043711L2.63002 2.86496C2.50345 2.92277 2.50345 3.01746 2.63002 3.07559V3.07559Z" fill="#3E8181"/>
</g>
<defs>
<clipPath id="clip0_618_8170">
<rect width="16" height="16" fill="white"/>
</clipPath>
</defs>
</svg>
