<svg width="25" height="25" viewBox="0 0 25 25" fill="none" xmlns="http://www.w3.org/2000/svg">
<g clip-path="url(#clip0_693_7087)">
<path d="M13.7774 4.06848L13.7776 4.06825C16.0642 1.70117 19.7318 1.34851 22.1744 3.43658C25.0088 5.86373 25.1599 10.2279 22.6169 12.8608L22.6168 12.8609L13.1995 22.6167C13.1995 22.6167 13.1995 22.6167 13.1994 22.6168C12.7876 23.043 12.1259 23.043 11.7141 22.6167L2.29707 12.8611C-0.24141 10.2282 -0.0903592 5.86391 2.74401 3.4367C5.18676 1.34833 8.85906 1.70142 11.1405 4.06789L11.1411 4.06848L12.0999 5.05969L12.4593 5.43124L12.8186 5.05969L13.7774 4.06848Z" fill="#FAFAFA" stroke="#3e8181"/>
</g>
<defs>
<clipPath id="clip0_693_7087">
<rect width="24.9183" height="25" fill="white"/>
</clipPath>
</defs>
</svg>
