<svg width="26" height="25" viewBox="0 0 26 25" fill="none" xmlns="http://www.w3.org/2000/svg">
<g clip-path="url(#clip0_693_7135)">
<path d="M3.85746 11.25C5.27588 11.25 6.4291 10.1289 6.4291 8.75C6.4291 7.37109 5.27588 6.25 3.85746 6.25C2.43904 6.25 1.28582 7.37109 1.28582 8.75C1.28582 10.1289 2.43904 11.25 3.85746 11.25ZM21.8589 11.25C23.2773 11.25 24.4306 10.1289 24.4306 8.75C24.4306 7.37109 23.2773 6.25 21.8589 6.25C20.4405 6.25 19.2873 7.37109 19.2873 8.75C19.2873 10.1289 20.4405 11.25 21.8589 11.25ZM23.1447 12.5H20.5731C19.8659 12.5 19.227 12.7773 18.7609 13.2266C20.3802 14.0898 21.5294 15.6484 21.7786 17.5H24.4306C25.1418 17.5 25.7164 16.9414 25.7164 16.25V15C25.7164 13.6211 24.5632 12.5 23.1447 12.5ZM12.8582 12.5C15.3454 12.5 17.3586 10.543 17.3586 8.125C17.3586 5.70703 15.3454 3.75 12.8582 3.75C10.3709 3.75 8.35782 5.70703 8.35782 8.125C8.35782 10.543 10.3709 12.5 12.8582 12.5ZM15.9442 13.75H15.6106C14.7749 14.1406 13.8467 14.375 12.8582 14.375C11.8697 14.375 10.9455 14.1406 10.1057 13.75H9.77223C7.21666 13.75 5.14328 15.7656 5.14328 18.25V19.375C5.14328 20.4102 6.00719 21.25 7.07201 21.25H18.6444C19.7092 21.25 20.5731 20.4102 20.5731 19.375V18.25C20.5731 15.7656 18.4997 13.75 15.9442 13.75ZM6.95548 13.2266C6.48937 12.7773 5.85048 12.5 5.14328 12.5H2.57164C1.15322 12.5 0 13.6211 0 15V16.25C0 16.9414 0.5746 17.5 1.28582 17.5H3.9338C4.18695 15.6484 5.33615 14.0898 6.95548 13.2266Z" fill="#3E8181"/>
</g>
<defs>
<clipPath id="clip0_693_7135">
<rect width="25.7164" height="25" fill="white"/>
</clipPath>
</defs>
</svg>
