<svg width="26" height="25" viewBox="0 0 26 25" fill="none" xmlns="http://www.w3.org/2000/svg">
<g clip-path="url(#clip0_693_7137)">
<path d="M20.5707 5.84322L15.3488 0.374323C14.8724 -0.124408 14.0591 -0.12514 13.5821 0.374323L8.35969 5.84322C7.64616 6.59029 8.19012 7.81251 9.24304 7.81251H12.4563V21.0938H8.23844C8.15929 21.0937 8.08091 21.1089 8.00779 21.1384C7.93466 21.1678 7.86822 21.211 7.81226 21.2654L4.99953 23.9998C4.61982 24.3689 4.88873 25 5.42571 25H15.2691C15.9348 25 16.4745 24.4753 16.4745 23.8281V7.81251H19.6874C20.736 7.81251 21.2871 6.59332 20.5707 5.84322Z" fill="#3E8181"/>
</g>
<defs>
<clipPath id="clip0_693_7137">
<rect width="25.7164" height="25" fill="white"/>
</clipPath>
</defs>
</svg>
