<svg width="20" height="20" viewBox="0 0 20 20" fill="none" xmlns="http://www.w3.org/2000/svg">
<path d="M18.4137 1.58419C18.4085 1.57906 18.4033 1.57393 18.398 1.56891C16.482 -0.332722 13.4281 -0.528944 11.2862 1.11362C11.0718 1.27755 10.8991 1.42661 10.7426 1.58265C10.7381 1.58716 10.7337 1.59167 10.7293 1.59628L7.30137 5.02464C7.00109 5.32492 7.00109 5.81178 7.30147 6.11196C7.60185 6.41234 8.08872 6.41224 8.38879 6.11185L11.8294 2.67069C11.833 2.6671 11.8365 2.66351 11.8401 2.65992C11.945 2.55638 12.0662 2.45283 12.221 2.33453C13.7596 1.15473 15.9538 1.29928 17.3253 2.67089C17.3298 2.6754 17.3344 2.67991 17.339 2.68432C18.8411 4.20017 18.8369 6.65613 17.3263 8.16737L13.8859 11.6082C13.5856 11.9085 13.5856 12.3954 13.886 12.6955C14.0362 12.8456 14.2329 12.9207 14.4296 12.9207C14.6264 12.9207 14.8232 12.8456 14.9734 12.6954L18.4139 9.25459C20.5281 7.13951 20.5281 3.69855 18.4137 1.58419Z" fill="#3E8181"/>
<path d="M11.6083 13.8844L8.16972 17.3231C8.16295 17.33 8.15619 17.3371 8.14962 17.3442C7.76948 17.7181 7.32342 18.0053 6.82251 18.1984C5.38775 18.7539 3.75841 18.4107 2.67242 17.3246C1.15842 15.8089 1.15842 13.3427 2.67242 11.8276L6.11267 8.38867C6.25681 8.24443 6.3379 8.04882 6.3379 7.84481V7.84348C6.3379 7.41874 5.99374 7.0752 5.56901 7.0752C5.35013 7.0752 5.15257 7.16695 5.01253 7.31386L1.5848 10.7403C-0.528129 12.855 -0.528334 16.2963 1.58459 18.4116C2.61952 19.4467 4.00692 19.9985 5.41994 19.9985C6.0775 19.9984 6.7408 19.8788 7.37642 19.6329C8.08606 19.3595 8.7182 18.9491 9.25519 18.4133C9.26299 18.4056 9.27057 18.3976 9.27806 18.3895L12.6957 14.9719C12.996 14.6715 12.996 14.1847 12.6956 13.8844C12.3956 13.5843 11.9087 13.5843 11.6083 13.8844Z" fill="#3E8181"/>
<path d="M6.06503 13.9332C6.21522 14.0833 6.41195 14.1584 6.60879 14.1584C6.80553 14.1584 7.00236 14.0833 7.15245 13.9333L13.9355 7.15047C14.2359 6.85019 14.2359 6.36333 13.9357 6.06315C13.6354 5.76277 13.1485 5.76287 12.8483 6.06305L6.06523 12.8458C5.76475 13.146 5.76475 13.6329 6.06503 13.9332Z" fill="#3E8181"/>
</svg>
