<svg width="23" height="32" viewBox="0 0 23 32" fill="none" xmlns="http://www.w3.org/2000/svg">
<path d="M11.4889 0.797103C6.64475 0.765669 2.18322 3.98868 0.866533 8.87765C0.569238 9.98154 0.495111 11.0673 0.500245 12.1076C0.518462 15.7998 2.50179 18.9896 4.74031 22.0862C6.97883 25.1829 9.50076 28.2304 10.8451 31.5653C10.8993 31.6943 10.9904 31.8043 11.1069 31.8817C11.2234 31.9591 11.3601 32.0003 11.5 32.0003C11.6399 32.0003 11.7766 31.9591 11.8931 31.8817C12.0096 31.8043 12.1007 31.6943 12.1549 31.5653C13.4992 28.2304 16.0212 25.1829 18.2597 22.0862C20.4982 18.9896 22.4815 15.7998 22.4998 12.1076C22.5049 11.0673 22.4308 9.98154 22.1335 8.87765C20.8168 3.98868 16.3552 0.765662 11.5111 0.797103C11.5037 0.797153 11.4963 0.797039 11.4889 0.797103ZM11.4889 2.21786C11.4963 2.21797 11.5037 2.21797 11.5111 2.21786C15.7266 2.18179 19.6071 4.9738 20.7571 9.24394C21.0094 10.1808 21.0838 11.1438 21.079 12.1076C21.0633 15.288 19.3036 18.2127 17.1053 21.2538C15.1874 23.9069 13.0077 26.636 11.5 29.6895C9.99226 26.636 7.8126 23.9069 5.89468 21.2538C3.69638 18.2127 1.93669 15.288 1.921 12.1076C1.91624 11.1438 1.99057 10.1808 2.24289 9.24394C3.39291 4.9738 7.27338 2.18179 11.4889 2.21786ZM11.4778 7.1461C8.9689 7.14291 6.91266 9.19118 6.91584 11.697C6.91904 14.2027 8.98 16.2446 11.4889 16.2478C13.9978 16.2514 16.0429 14.2138 16.0398 11.7081C16.0366 9.20228 13.9867 7.1493 11.4778 7.1461ZM11.4778 8.56686C13.2184 8.56899 14.6168 9.96971 14.619 11.7081C14.6212 13.4464 13.2184 14.8293 11.4778 14.8271C9.73722 14.8249 8.33881 13.4353 8.3366 11.697C8.3344 9.95861 9.73722 8.56464 11.4778 8.56686Z" fill="#3E8181"/>
</svg>
