<svg width="20" height="20" viewBox="0 0 20 20" fill="none" xmlns="http://www.w3.org/2000/svg">
<path d="M10.0019 0.300002L10.0021 0.300002C12.5191 0.298603 14.9381 1.27599 16.7479 3.02561C18.5564 4.77409 19.6149 7.15691 19.7 9.67108V11.3322C19.699 12.057 19.4642 12.7622 19.0303 13.3429C18.5964 13.9235 17.9868 14.3486 17.292 14.5549C16.5972 14.7612 15.8544 14.7377 15.1741 14.4879C14.4937 14.2381 13.9121 13.7753 13.5158 13.1684L13.316 12.8624L13.0548 13.118C12.3342 13.823 11.3919 14.2569 10.3877 14.346C9.38359 14.4351 8.37957 14.1739 7.54611 13.6068C6.71265 13.0396 6.1011 12.2015 5.81531 11.2346C5.52951 10.2677 5.58708 9.23174 5.97824 8.30251C6.3694 7.37327 7.07004 6.60806 7.9612 6.13678C8.85236 5.66549 9.87914 5.51717 10.8672 5.717C11.8553 5.91682 12.7438 6.45247 13.3819 7.23302C14.0199 8.01358 14.3683 8.99093 14.3677 9.99916V9.99933V11.3326C14.3677 11.8541 14.5749 12.3543 14.9436 12.7231C15.3124 13.0919 15.8125 13.2991 16.334 13.2991C16.8556 13.2991 17.3557 13.0919 17.7245 12.7231C18.0932 12.3543 18.3004 11.8541 18.3004 11.3326V9.99933C18.3004 7.79819 17.4261 5.68719 15.8698 4.13074C14.3136 2.57428 12.2028 1.69987 10.0019 1.69987C7.80105 1.69987 5.69031 2.57428 4.13405 4.13074C2.57885 5.68613 1.7047 7.79531 1.70351 9.99483C1.65757 11.558 2.11301 13.0935 3.00097 14.3775L1.72156 17.8963L1.5019 18.5004L2.10604 18.2807L5.62435 17.0012C6.90817 17.8893 8.44347 18.3447 10.0065 18.2988C11.5094 18.2978 12.9817 17.8868 14.2658 17.1124L15.1417 18.2204C13.6041 19.1868 11.8227 19.7005 10.0022 19.6987V19.6986L9.99685 19.6987C8.45009 19.725 6.92271 19.3517 5.56238 18.6149L5.44351 18.5506L5.31653 18.597L2.58078 19.5968C2.27678 19.7074 1.94752 19.729 1.63169 19.6589C1.31586 19.5889 1.02658 19.4301 0.797819 19.2014C0.569061 18.9726 0.410339 18.6832 0.340304 18.3673C0.270285 18.0515 0.291822 17.7223 0.402383 17.4183C0.402408 17.4182 0.402433 17.4181 0.402459 17.4181L1.40213 14.682L1.44846 14.5552L1.38426 14.4364C0.649245 13.0765 0.277135 11.5501 0.30385 10.0045L0.303895 10.0045V9.99933C0.303895 7.4269 1.32566 4.95983 3.1444 3.14086C4.96314 1.32188 7.42988 0.300002 10.0019 0.300002ZM8.35403 12.4659C8.84181 12.7918 9.41529 12.9658 10.0019 12.9658C10.7886 12.9658 11.5431 12.6533 12.0993 12.0969C12.6556 11.5406 12.9681 10.7861 12.9681 9.99933C12.9681 9.41262 12.7941 8.83909 12.4682 8.35125C12.1423 7.86342 11.6791 7.48319 11.1371 7.25866C10.5951 7.03413 9.99866 6.97538 9.42327 7.08984C8.84789 7.20431 8.31937 7.48685 7.90455 7.90172C7.48973 8.31659 7.20724 8.84517 7.09279 9.4206C6.97835 9.99604 7.03708 10.5925 7.26158 11.1345C7.48607 11.6766 7.86625 12.1399 8.35403 12.4659Z" fill="#3E8181" stroke="white" stroke-width="0.6"/>
</svg>
