<svg width="30" height="29" viewBox="0 0 30 29" fill="none" xmlns="http://www.w3.org/2000/svg">
<path d="M0.805647 14.5042L0.805603 14.5042C0.766465 16.7685 1.31161 19.0047 2.38841 20.9969L2.45262 21.1157L2.40628 21.2425L0.956701 25.2101C0.956675 25.2101 0.95665 25.2102 0.956624 25.2103C0.787498 25.6752 0.754545 26.1788 0.861641 26.6619C0.968753 27.145 1.2115 27.5875 1.56137 27.9374C1.91124 28.2873 2.35368 28.5301 2.83673 28.6372C3.31964 28.7443 3.82307 28.7114 4.28792 28.5423L0.805647 14.5042ZM0.805647 14.5042V14.499C0.805647 10.7332 2.30143 7.12162 4.96392 4.45879C7.62641 1.79596 11.2375 0.300002 15.0028 0.300002V0.000861849L15.003 0.300002C18.6877 0.297954 22.2289 1.72877 24.8782 4.29008C27.5263 6.85024 29.076 10.3394 29.2 14.0208V16.4318C29.1986 17.512 28.8486 18.5628 28.2021 19.428C27.5556 20.2932 26.6471 20.9266 25.6118 21.234C24.5765 21.5414 23.4697 21.5064 22.4559 21.1342C21.4421 20.7619 20.5754 20.0724 19.9849 19.168L19.7851 18.862L19.5239 19.1176C18.4568 20.1617 17.0612 20.8042 15.5741 20.9362C14.0871 21.0681 12.6002 20.6813 11.3659 19.8414C10.1316 19.0015 9.22597 17.7603 8.80273 16.3284C8.3795 14.8966 8.46475 13.3624 9.04402 11.9863C9.62329 10.6101 10.6609 9.47692 11.9806 8.77899C13.3004 8.08105 14.821 7.8614 16.2842 8.15732C17.7475 8.45324 19.0633 9.2465 20.0082 10.4024C20.9532 11.5584 21.469 13.0058 21.4682 14.4989V14.499V16.4322C21.4682 17.1527 21.7543 17.8436 22.2637 18.3531C22.7731 18.8625 23.464 19.1487 24.1844 19.1487C24.9048 19.1487 25.5956 18.8625 26.105 18.3531C26.6144 17.8436 26.9006 17.1527 26.9006 16.4322V14.499C26.9006 11.3432 25.6471 8.31656 23.4158 6.08502C21.1846 3.85348 18.1583 2.59981 15.0028 2.59981C11.8473 2.59981 8.82109 3.85348 6.58984 6.08502C4.35964 8.3155 3.10627 11.3403 3.10508 14.4945C3.03821 16.7563 3.70449 18.9775 5.00221 20.8276L3.12314 25.9957L2.90347 26.5999L3.50762 26.3802L8.675 24.5009C10.5249 25.7988 12.7459 26.4651 15.0073 26.3982C17.2023 26.3972 19.3519 25.786 21.2171 24.6355L22.6542 26.4532C20.3745 27.9201 17.7184 28.7007 15.0031 28.6981V28.698L14.9977 28.6981C12.7317 28.7366 10.4941 28.1897 8.50116 27.1104L8.38228 27.046L8.25531 27.0924L4.2883 28.5422L0.805647 14.5042ZM12.6884 17.9633C13.3734 18.4211 14.1789 18.6654 15.0028 18.6654C16.1077 18.6654 17.1673 18.2265 17.9486 17.4451C18.7298 16.6638 19.1687 15.604 19.1687 14.499C19.1687 13.675 18.9244 12.8695 18.4667 12.1843C18.0089 11.4992 17.3583 10.9651 16.5971 10.6498C15.8358 10.3344 14.9982 10.2519 14.1901 10.4127C13.382 10.5734 12.6397 10.9703 12.0571 11.5529C11.4745 12.1356 11.0777 12.878 10.917 13.6862C10.7562 14.4944 10.8387 15.3321 11.154 16.0934C11.4693 16.8547 12.0033 17.5054 12.6884 17.9633Z" fill="#3E8181" stroke="white" stroke-width="0.6"/>
</svg>
