<svg width="16" height="16" viewBox="0 0 16 16" fill="none" xmlns="http://www.w3.org/2000/svg">
<path d="M15.0617 1.77934C13.5394 1.86573 10.5139 2.18017 8.64611 3.32351C8.51722 3.4024 8.44417 3.54267 8.44417 3.68934V13.7968C8.44417 14.1177 8.795 14.3205 9.09083 14.1716C11.0125 13.2043 13.7917 12.9405 15.1658 12.8682C15.635 12.8435 15.9997 12.4674 15.9997 12.0166V2.63212C16 2.14017 15.5733 1.75045 15.0617 1.77934ZM7.35361 3.32351C5.48611 2.18017 2.46056 1.86601 0.938333 1.77934C0.426667 1.75045 0 2.14017 0 2.63212V12.0168C0 12.468 0.364722 12.8441 0.833889 12.8685C2.20861 12.9407 4.98917 13.2049 6.91083 14.1727C7.20583 14.3213 7.55556 14.1188 7.55556 13.7988V3.68434C7.55556 3.5374 7.48278 3.40267 7.35361 3.32351Z" fill="#3E8181"/>
</svg>
