<svg width="150" height="150" viewBox="0 0 150 150" fill="none" xmlns="http://www.w3.org/2000/svg">
<g clip-path="url(#clip0_2416_5357)">
<path d="M136.956 72.608H13.0436C5.83975 72.608 0 66.7683 0 59.5647V44.9327C0 37.7292 5.83975 31.8892 13.0436 31.8892H136.957C144.16 31.8892 150 37.7289 150 44.9327V59.5647C150 66.7683 144.16 72.608 136.956 72.608Z" fill="#C4C4C4" fill-opacity="0.5"/>
<path d="M136.956 31.8884H13.0436C5.83975 31.8884 0 37.7223 0 44.9185V59.5775C0 66.774 5.83975 72.6076 13.0436 72.6076H136.957C144.16 72.6076 150 66.774 150 59.5775V44.9185C150 37.7226 144.16 31.8884 136.956 31.8884ZM145.109 59.5778C145.109 64.0684 141.451 67.7214 136.956 67.7214H13.0436C8.54853 67.7214 4.89141 64.0684 4.89141 59.5778V44.9188C4.89141 40.4282 8.54853 36.7751 13.0436 36.7751H136.957C141.452 36.7751 145.109 40.4282 145.109 44.9188V59.5778H145.109Z" fill="#C4C4C4"/>
<path d="M18.7498 52.0854V52.4112C18.7498 53.7606 17.6547 54.8542 16.3041 54.8542C14.9535 54.8542 13.8584 53.7606 13.8584 52.4112V52.0854C13.8584 50.736 14.9535 49.6423 16.3041 49.6423C17.6547 49.6423 18.7498 50.736 18.7498 52.0854ZM26.0866 49.6423C24.736 49.6423 23.6409 50.736 23.6409 52.0854V52.4112C23.6409 53.7606 24.736 54.8542 26.0866 54.8542C27.4372 54.8542 28.5323 53.7606 28.5323 52.4112V52.0854C28.5323 50.736 27.4375 49.6423 26.0866 49.6423ZM35.8694 49.6423C34.5188 49.6423 33.4237 50.736 33.4237 52.0854V52.4112C33.4237 53.7606 34.5188 54.8542 35.8694 54.8542C37.22 54.8542 38.3151 53.7606 38.3151 52.4112V52.0854C38.3151 50.736 37.22 49.6423 35.8694 49.6423Z" fill="#BFBBA3"/>
<path d="M148.09 104.393L129.644 85.9653C127.097 83.4209 122.968 83.4209 120.421 85.9653L113.063 78.615C122.075 65.3095 120.686 47.0719 108.892 35.2902C95.5209 21.9326 73.8418 21.9326 60.4707 35.2902C47.0996 48.6478 47.0996 70.3043 60.4707 83.6623C72.2647 95.444 90.5214 96.8315 103.84 87.8292L111.198 95.1794C108.651 97.7236 108.651 101.849 111.198 104.393L129.644 122.82C132.191 125.365 136.321 125.365 138.867 122.82L148.09 113.607C150.637 111.062 150.637 106.937 148.09 104.393Z" fill="#C4C4C4"/>
<path d="M113.062 78.6152L120.42 85.9655L111.197 95.1791L103.839 87.8288C105.62 86.625 107.315 85.2378 108.891 83.6619C110.469 82.0863 111.857 80.3944 113.062 78.6152Z" fill="#C4C4C4"/>
<path d="M107.507 59.4762C107.507 72.0698 97.2875 82.2789 84.6811 82.2789C72.0746 82.2789 61.855 72.0698 61.855 59.4762C61.855 46.8827 72.0746 36.6736 84.6811 36.6736C97.2875 36.6736 107.507 46.8824 107.507 59.4762Z" fill="#F4F4F4"/>
<path d="M106.183 51.8164L77.0131 80.9562C72.7469 79.4363 69.0648 76.6874 66.3994 73.1319L98.3506 41.2133C101.91 43.8761 104.661 47.5543 106.183 51.8164ZM92.348 37.9956L63.1782 67.1354C63.5603 68.2057 64.0188 69.239 64.5496 70.2283L95.444 39.3655C94.4538 38.8355 93.419 38.3773 92.348 37.9956Z" fill="#C4C4C4"/>
<path d="M84.7825 42.4248C88.3846 42.4248 91.3043 45.3416 91.3043 48.9401C91.3043 52.5381 88.3846 55.4555 84.7825 55.4555C81.1805 55.4555 78.2607 52.5387 78.2607 48.9401C78.2607 45.3416 81.1808 42.4248 84.7825 42.4248Z" fill="white"/>
</g>
<defs>
<clipPath id="clip0_2416_5357">
<rect width="150" height="150" fill="white"/>
</clipPath>
</defs>
</svg>
