<svg width="25" height="25" viewBox="0 0 25 25" fill="none" xmlns="http://www.w3.org/2000/svg">
<path d="M12.0068 12.5049C11.7627 11.7236 11.7676 10.2148 11.9092 10.2148C12.3193 10.2148 12.2803 12.0166 12.0068 12.5049ZM11.9238 14.8096C11.5479 15.7959 11.0791 16.9238 10.5371 17.8711C11.4307 17.5293 12.4414 17.0312 13.6084 16.8018C12.9883 16.333 12.3926 15.6592 11.9238 14.8096ZM7.3291 20.9033C7.3291 20.9424 7.97363 20.6396 9.0332 18.9404C8.70605 19.248 7.6123 20.1367 7.3291 20.9033ZM15.2344 7.8125H21.875V23.8281C21.875 24.4775 21.3525 25 20.7031 25H4.29688C3.64746 25 3.125 24.4775 3.125 23.8281V1.17188C3.125 0.522461 3.64746 0 4.29688 0H14.0625V6.64062C14.0625 7.28516 14.5898 7.8125 15.2344 7.8125ZM14.8438 16.2012C13.8672 15.6055 13.2178 14.7852 12.7588 13.5742C12.9785 12.6709 13.3252 11.2988 13.0615 10.4395C12.832 9.00391 10.9912 9.14551 10.7275 10.1074C10.4834 11.001 10.708 12.2607 11.123 13.8672C10.5566 15.2148 9.72168 17.0215 9.13086 18.0566C9.12598 18.0566 9.12598 18.0615 9.12109 18.0615C7.79785 18.7402 5.52734 20.2344 6.45996 21.3818C6.7334 21.7188 7.24121 21.8701 7.50977 21.8701C8.38379 21.8701 9.25293 20.9912 10.4932 18.8525C11.7529 18.4375 13.1348 17.9199 14.3506 17.7197C15.4102 18.2959 16.6504 18.6719 17.4756 18.6719C18.9014 18.6719 18.999 17.1094 18.4375 16.5527C17.7588 15.8887 15.7861 16.0791 14.8438 16.2012ZM21.5332 5.12695L16.748 0.341797C16.5283 0.12207 16.2305 0 15.918 0H15.625V6.25H21.875V5.95215C21.875 5.64453 21.7529 5.34668 21.5332 5.12695ZM17.915 17.5928C18.1152 17.4609 17.793 17.0117 15.8252 17.1533C17.6367 17.9248 17.915 17.5928 17.915 17.5928Z" fill="#3E8181"/>
</svg>
