<svg width="31" height="32" viewBox="0 0 31 32" fill="none" xmlns="http://www.w3.org/2000/svg">
<path d="M22.787 31C22.2389 30.908 21.6868 30.836 21.1427 30.7199C19.113 30.2182 17.1678 29.4216 15.3693 28.3554C12.5386 26.7823 9.97329 24.7732 7.76759 22.402C5.08297 19.4854 2.85046 16.2726 1.44214 12.5358C0.896443 11.1913 0.582593 9.76413 0.513922 8.3148C0.461336 7.60588 0.558086 6.89382 0.797917 6.22463C1.03775 5.55545 1.41532 4.94403 1.90624 4.42991C2.74643 3.56971 3.55862 2.6775 4.46283 1.89332C5.85915 0.693049 7.3795 0.693049 8.72781 1.94934C10.1521 3.28564 11.5284 4.68997 12.8528 6.11829C13.3387 6.64212 13.6087 7.33023 13.6087 8.04474C13.6087 8.75924 13.3387 9.44735 12.8528 9.97118C12.1486 10.7714 11.3684 11.4995 10.6242 12.2637C10.5562 12.3277 10.4842 12.3837 10.3602 12.4958C12.3475 16.0931 15.3152 19.0525 18.9181 21.0297L20.6946 19.2333C21.1308 18.7178 21.6779 18.3075 22.2949 18.033C22.7795 17.8223 23.3155 17.7592 23.8357 17.8517C24.356 17.9442 24.8374 18.1882 25.2196 18.5531C26.7106 19.9721 28.1643 21.4311 29.5806 22.9302C30.0607 23.4447 30.334 24.1184 30.348 24.822C30.362 25.5257 30.1158 26.2097 29.6566 26.743C28.7604 27.7993 27.7682 28.7995 26.7639 29.7677C26.0489 30.4254 25.1385 30.8314 24.1714 30.924C24.1023 30.9403 24.0342 30.9603 23.9673 30.984L22.787 31ZM23.2311 29.1956C23.7239 29.2226 24.2168 29.143 24.6759 28.9621C25.1351 28.7812 25.5498 28.5033 25.8917 28.1473C26.5639 27.4432 27.2521 26.755 27.9322 26.0589C28.0201 25.9702 28.1029 25.8767 28.1803 25.7788C28.2961 25.6622 28.3872 25.5236 28.4483 25.371C28.5093 25.2185 28.5391 25.0552 28.5357 24.891C28.5324 24.7267 28.496 24.5648 28.4287 24.4149C28.3615 24.265 28.2647 24.1301 28.1443 24.0184C27.5961 23.4263 27.016 22.8661 26.4479 22.294C25.7077 21.5538 24.9755 20.8097 24.2274 20.0815C24.1184 19.9591 23.9856 19.8602 23.8371 19.7911C23.6885 19.722 23.5273 19.684 23.3635 19.6795C23.1997 19.675 23.0368 19.7041 22.8846 19.7649C22.7325 19.8258 22.5944 19.9172 22.479 20.0335C22.3669 20.1255 22.2669 20.2295 22.1629 20.3336C21.4507 21.0417 20.7466 21.7579 20.0304 22.458C19.8239 22.6952 19.5413 22.8532 19.2311 22.905C18.921 22.9568 18.6024 22.8992 18.33 22.7421C17.8939 22.5221 17.4618 22.302 17.0417 22.0539C15.1916 20.9226 13.5174 19.5261 12.0726 17.909C10.7333 16.5373 9.62294 14.9596 8.78382 13.2359C8.35972 12.2997 8.45174 11.8436 9.18391 11.1314C9.91608 10.4193 10.7003 9.66311 11.4244 8.89493C11.5415 8.78977 11.6356 8.66161 11.7009 8.51844C11.7661 8.37527 11.8012 8.22017 11.8038 8.06284C11.8064 7.90552 11.7766 7.74934 11.7161 7.60407C11.6557 7.4588 11.5659 7.32756 11.4524 7.21855C11.3644 7.11452 11.2724 7.0185 11.1804 6.92248L7.66756 3.39367C6.91539 2.6535 6.24724 2.6455 5.49507 3.39367C4.74289 4.14184 4.03473 4.80199 3.35057 5.55016C3.01332 5.89847 2.74219 6.30517 2.55039 6.75044C2.24973 7.70584 2.2372 8.72864 2.51438 9.69111C2.8474 11.1859 3.37185 12.6315 4.07474 13.9921C5.28071 16.3913 6.80997 18.6139 8.61978 20.5976C11.7344 24.1424 15.6758 26.8635 20.0944 28.5194C21.0998 28.8994 22.1578 29.1221 23.2311 29.1796V29.1956Z" fill="#3E8181" stroke="white" stroke-width="0.5"/>
</svg>
