<svg width="25" height="25" viewBox="0 0 25 25" fill="none" xmlns="http://www.w3.org/2000/svg">
<path d="M20.4392 10.2024C20.397 11.973 19.9325 13.6594 19.0457 15.1771C18.7501 15.683 18.8345 16.0624 19.2146 16.4418C20.946 18.1703 22.6774 19.8988 24.4088 21.6273C25.0845 22.3018 25.169 23.2293 24.7467 23.9882C24.3244 24.7049 23.4798 25.0843 22.6352 24.8735C22.2551 24.747 21.8751 24.4941 21.5795 24.2411C19.8903 22.597 18.2011 20.9106 16.5541 19.2243C16.0896 18.7605 15.7095 18.6762 15.1183 19.0135C11.6977 20.8263 8.23486 20.8263 4.89871 18.8449C1.52033 16.7791 -0.16886 13.7015 5.85029e-05 9.69645C0.211207 4.67959 4.1808 0.463739 8.95276 -4.90993e-06C14.3582 -0.42159 18.919 2.78246 20.1014 7.9258C20.2703 8.64249 20.3126 9.4435 20.4392 10.2024ZM10.1774 3.41483C6.41898 3.41483 3.37844 6.45025 3.42067 10.2024C3.42067 13.9545 6.46121 16.9477 10.2197 16.9477C13.8936 16.9477 16.9764 13.8701 16.9764 10.2024C16.9342 6.40809 13.9359 3.41483 10.1774 3.41483Z" fill="#3E8181"/>
</svg>
