<svg width="26" height="25" viewBox="0 0 26 25" fill="none" xmlns="http://www.w3.org/2000/svg">
<g clip-path="url(#clip0_693_7143)">
<path d="M12.8582 0.390625C5.97709 0.390625 0.401855 5.81055 0.401855 12.5C0.401855 19.1895 5.97709 24.6094 12.8582 24.6094C19.7394 24.6094 25.3146 19.1895 25.3146 12.5C25.3146 5.81055 19.7394 0.390625 12.8582 0.390625ZM15.7262 17.4854L11.2962 14.3555C11.1405 14.2432 11.05 14.0674 11.05 13.8818V5.66406C11.05 5.3418 11.3213 5.07812 11.6528 5.07812H14.0637C14.3952 5.07812 14.6664 5.3418 14.6664 5.66406V12.3877L17.8558 14.6436C18.1271 14.834 18.1823 15.2002 17.9864 15.4639L16.57 17.3584C16.3741 17.6172 15.9974 17.6758 15.7262 17.4854Z" fill="#3E8181"/>
</g>
<defs>
<clipPath id="clip0_693_7143">
<rect width="25.7164" height="25" fill="white"/>
</clipPath>
</defs>
</svg>
