<svg width="23" height="25" viewBox="0 0 23 25" fill="none" xmlns="http://www.w3.org/2000/svg">
<path d="M0.5625 22.6562C0.5625 23.9502 1.6123 25 2.90625 25H20.0938C21.3877 25 22.4375 23.9502 22.4375 22.6562V9.375H0.5625V22.6562ZM16.1875 13.0859C16.1875 12.7637 16.4512 12.5 16.7734 12.5H18.7266C19.0488 12.5 19.3125 12.7637 19.3125 13.0859V15.0391C19.3125 15.3613 19.0488 15.625 18.7266 15.625H16.7734C16.4512 15.625 16.1875 15.3613 16.1875 15.0391V13.0859ZM16.1875 19.3359C16.1875 19.0137 16.4512 18.75 16.7734 18.75H18.7266C19.0488 18.75 19.3125 19.0137 19.3125 19.3359V21.2891C19.3125 21.6113 19.0488 21.875 18.7266 21.875H16.7734C16.4512 21.875 16.1875 21.6113 16.1875 21.2891V19.3359ZM9.9375 13.0859C9.9375 12.7637 10.2012 12.5 10.5234 12.5H12.4766C12.7988 12.5 13.0625 12.7637 13.0625 13.0859V15.0391C13.0625 15.3613 12.7988 15.625 12.4766 15.625H10.5234C10.2012 15.625 9.9375 15.3613 9.9375 15.0391V13.0859ZM9.9375 19.3359C9.9375 19.0137 10.2012 18.75 10.5234 18.75H12.4766C12.7988 18.75 13.0625 19.0137 13.0625 19.3359V21.2891C13.0625 21.6113 12.7988 21.875 12.4766 21.875H10.5234C10.2012 21.875 9.9375 21.6113 9.9375 21.2891V19.3359ZM3.6875 13.0859C3.6875 12.7637 3.95117 12.5 4.27344 12.5H6.22656C6.54883 12.5 6.8125 12.7637 6.8125 13.0859V15.0391C6.8125 15.3613 6.54883 15.625 6.22656 15.625H4.27344C3.95117 15.625 3.6875 15.3613 3.6875 15.0391V13.0859ZM3.6875 19.3359C3.6875 19.0137 3.95117 18.75 4.27344 18.75H6.22656C6.54883 18.75 6.8125 19.0137 6.8125 19.3359V21.2891C6.8125 21.6113 6.54883 21.875 6.22656 21.875H4.27344C3.95117 21.875 3.6875 21.6113 3.6875 21.2891V19.3359ZM20.0938 3.125H17.75V0.78125C17.75 0.351562 17.3984 0 16.9688 0H15.4062C14.9766 0 14.625 0.351562 14.625 0.78125V3.125H8.375V0.78125C8.375 0.351562 8.02344 0 7.59375 0H6.03125C5.60156 0 5.25 0.351562 5.25 0.78125V3.125H2.90625C1.6123 3.125 0.5625 4.1748 0.5625 5.46875V7.8125H22.4375V5.46875C22.4375 4.1748 21.3877 3.125 20.0938 3.125Z" fill="#8E8E8E"/>
</svg>
