<svg width="13" height="11" viewBox="0 0 13 11" fill="none" xmlns="http://www.w3.org/2000/svg">
<path d="M0 8.4502V3.73398C0 3.62061 0.120927 3.54822 0.220853 3.60177L5.08294 6.20739C5.9681 6.68176 7.0319 6.68176 7.91706 6.20739L12.7791 3.60177C12.8791 3.54822 13 3.62061 13 3.73398V8.4502C13 9.55476 12.1046 10.4502 11 10.4502H2C0.895431 10.4502 0 9.55476 0 8.4502Z" fill="#3E8181"/>
<path d="M0 1.99977V2.52252C0 2.5778 0.0304147 2.62861 0.0791471 2.65473L5.08294 5.33629C5.9681 5.81065 7.0319 5.81065 7.91706 5.33629L12.9209 2.65473C12.9696 2.62861 13 2.5778 13 2.52252V1.99977C13 0.895198 12.1046 -0.00023222 11 -0.00023222H2C0.895431 -0.00023222 0 0.895198 0 1.99977Z" fill="#3E8181"/>
</svg>
