<svg width="24" height="24" viewBox="0 0 24 24" fill="none" xmlns="http://www.w3.org/2000/svg">
<path d="M2 12C2 17.5228 6.47715 22 12 22C17.5228 22 22 17.5228 22 12C22 6.47715 17.5228 2 12 2C6.47715 2 2 6.47715 2 12Z" stroke="#3E8181" stroke-width="1.5" stroke-linecap="round" stroke-linejoin="round"/>
<path d="M13 2.0498C13 2.0498 16 6.00042 16 12.0004C16 18.0004 13 21.9511 13 21.9511" stroke="#3E8181" stroke-width="1.5" stroke-linecap="round" stroke-linejoin="round"/>
<path d="M11 21.9511C11 21.9511 8 18.0004 8 12.0004C8 6.00042 11 2.0498 11 2.0498" stroke="#3E8181" stroke-width="1.5" stroke-linecap="round" stroke-linejoin="round"/>
<path d="M2.62988 15.5H21.3706" stroke="#3E8181" stroke-width="1.5" stroke-linecap="round" stroke-linejoin="round"/>
<path d="M2.62988 8.5H21.3706" stroke="#3E8181" stroke-width="1.5" stroke-linecap="round" stroke-linejoin="round"/>
</svg>
