<svg width="152" height="198" viewBox="0 0 152 198" fill="none" xmlns="http://www.w3.org/2000/svg">
<path d="M126.586 96.5046C124.623 95.1164 122.626 93.7032 121.127 91.8232C119.629 89.9432 118.651 87.5045 119.056 85.1347C119.587 82.0082 122.276 79.7509 123.574 76.8683C124.064 75.7803 124.354 74.6068 124.923 73.5584C125.492 72.51 126.428 71.5596 127.61 71.4095C128.374 71.3136 129.146 71.5637 129.831 71.916C132.255 73.152 133.879 75.6135 134.663 78.221C135.447 80.8285 135.484 83.5923 135.424 86.3144C135.34 90.1287 135.076 93.9332 134.632 97.728" fill="#BD7B63"/>
<path d="M134.923 57.8763H119.947C119.636 57.8763 119.335 57.9896 119.101 58.1952C118.867 58.4008 118.716 58.6846 118.676 58.9935L114.565 90.7042C114.542 90.8849 114.557 91.0686 114.61 91.2429C114.664 91.4172 114.753 91.5782 114.874 91.7151C114.994 91.852 115.142 91.9616 115.308 92.0367C115.474 92.1119 115.654 92.1507 115.837 92.1507H131.932C132.134 92.1486 132.329 92.073 132.479 91.938C132.63 91.803 132.727 91.6178 132.751 91.417L136.205 59.302C136.225 59.122 136.207 58.9397 136.152 58.7672C136.096 58.5946 136.005 58.4358 135.884 58.3011C135.763 58.1664 135.615 58.0589 135.449 57.9856C135.283 57.9124 135.104 57.8752 134.923 57.8763Z" fill="#2F2C2B"/>
<path d="M133.239 57.8763H118.28C117.969 57.8762 117.668 57.9896 117.434 58.1952C117.2 58.4008 117.049 58.6846 117.009 58.9935L112.882 90.7041C112.858 90.8848 112.873 91.0684 112.926 91.2427C112.979 91.417 113.069 91.578 113.189 91.715C113.309 91.8519 113.457 91.9616 113.623 92.0367C113.789 92.1119 113.969 92.1507 114.151 92.1506H129.636C129.976 92.1506 130.304 92.0252 130.558 91.7983C130.811 91.5714 130.972 91.259 131.009 90.9209L134.513 59.3019C134.533 59.1226 134.515 58.9411 134.461 58.7691C134.406 58.5972 134.315 58.4387 134.195 58.3042C134.075 58.1696 133.928 58.0619 133.763 57.9882C133.598 57.9144 133.42 57.8763 133.239 57.8763Z" fill="#80BFA7"/>
<path d="M133.239 58.833C133.285 58.8325 133.33 58.842 133.372 58.8607C133.414 58.8794 133.451 58.9069 133.481 58.9414C133.512 58.9758 133.536 59.0165 133.55 59.0607C133.564 59.105 133.568 59.1517 133.563 59.1977L130.059 90.8146C130.049 90.9185 130.001 91.0152 129.924 91.0854C129.847 91.1556 129.746 91.1944 129.642 91.1939H114.151C114.105 91.1952 114.058 91.1861 114.015 91.1674C113.972 91.1486 113.934 91.1207 113.903 91.0855C113.873 91.0508 113.85 91.01 113.836 90.9658C113.823 90.9216 113.819 90.8751 113.824 90.8292L117.945 59.1185C117.955 59.0401 117.993 58.968 118.053 58.9158C118.112 58.8636 118.189 58.8349 118.268 58.8351H133.235L133.239 58.833ZM133.235 57.8784H118.28C117.969 57.8783 117.668 57.9917 117.434 58.1973C117.2 58.4029 117.049 58.6867 117.009 58.9956L112.882 90.7041C112.858 90.8848 112.873 91.0684 112.926 91.2427C112.979 91.417 113.069 91.578 113.189 91.715C113.309 91.8519 113.457 91.9616 113.623 92.0367C113.789 92.1119 113.969 92.1507 114.151 92.1506H129.636C129.976 92.1506 130.304 92.0252 130.558 91.7983C130.811 91.5714 130.972 91.259 131.009 90.9209L134.513 59.3019C134.533 59.1226 134.515 58.9411 134.461 58.7691C134.406 58.5972 134.315 58.4387 134.195 58.3042C134.075 58.1696 133.928 58.0619 133.763 57.9882C133.598 57.9144 133.42 57.8763 133.239 57.8763L133.235 57.8784Z" fill="#2F2C2B"/>
<path d="M135.186 88.4011C134.782 85.2059 133.829 81.6084 130.953 80.1577C130.087 79.7542 129.157 79.5059 128.206 79.424C126.33 79.2051 124.139 79.449 123.078 81.0039C122.884 81.2567 122.78 81.5669 122.782 81.8856C122.845 82.7547 123.979 83.0549 124.848 82.9944C125.717 82.934 126.763 82.8131 127.295 83.5051C124.625 84.5472 122.903 87.5966 123.387 90.4229C123.804 92.8157 125.521 94.7374 127.172 96.5153L134.027 100.123C135.776 96.5445 135.684 92.353 135.186 88.4011Z" fill="#BD7B63"/>
<path d="M14.7063 94.3114C14.7063 94.3114 -0.525818 101.459 0.0140174 126.291C0.553853 151.123 19.5065 164.209 19.5065 164.209L26.987 130.872" fill="#F56767"/>
<path d="M81.7078 192.883L78.7897 174.368L19.8893 177.078C17.2457 182.274 15.3356 187.811 14.2137 193.531C14.1106 194.056 14.2197 194.6 14.5169 195.045C14.8142 195.49 15.2755 195.798 15.7999 195.903C25.248 197.815 38.8898 198.294 47.942 197.842C60.3186 197.217 68.3869 197.139 80.0549 195.178C80.5762 195.089 81.0416 194.798 81.3507 194.369C81.6598 193.94 81.7881 193.406 81.7078 192.883Z" fill="#2F2C2B"/>
<path d="M62.1202 25.529C62.4954 26.6128 63.8418 26.9422 64.9799 27.0839C66.1179 27.2256 67.4602 27.4841 67.9208 28.5429C68.4065 29.6476 67.5832 30.9586 67.9208 32.1196C68.1439 32.8949 68.8275 33.4285 69.3278 34.058C69.828 34.6874 70.126 35.6733 69.5674 36.2528C69.2652 36.5696 68.7692 36.6863 68.5441 37.0615C68.3356 37.3991 68.4315 37.8264 68.394 38.2183C68.2856 39.3313 67.2018 40.0566 66.1971 40.5443C65.8421 40.744 65.4511 40.8715 65.0466 40.9195C64.2129 40.9737 63.4583 40.3922 62.981 39.7065C62.5037 39.0207 62.2265 38.2162 61.8055 37.4971C61.3774 36.7741 60.8104 36.1431 60.1371 35.6404C59.4638 35.1378 58.6977 34.7735 57.8828 34.5686" fill="#2F2C2B"/>
<path d="M45.091 60.1365L39.084 87.27L60.7358 88.556L65.2254 65.9059L45.091 60.1365Z" fill="#BD7B63"/>
<path d="M69.8608 41.789C70.9217 45.3552 71.5428 49.7094 74.5547 51.8249C74.6812 51.9133 74.7886 52.0264 74.8702 52.1573C74.9518 52.2883 75.0061 52.4345 75.0296 52.587C75.0532 52.7395 75.0456 52.8953 75.0073 53.0448C74.969 53.1943 74.9008 53.3345 74.8069 53.4569L74.3525 54.0489C74.1963 54.2515 74.0921 54.4893 74.0493 54.7415C74.0064 54.9937 74.0261 55.2526 74.1065 55.4954C75.0278 58.2592 77.7728 69.2622 69.1772 70.79C62.9034 71.9031 55.452 70.1106 49.9619 66.5568C39.9572 60.0767 35.2467 45.4782 42.8357 35.4006C49.864 26.067 64.6 29.6187 69.0896 39.613C69.3946 40.3204 69.6523 41.0473 69.8608 41.789Z" fill="#BD7B63"/>
<path d="M29.942 26.2627L29.1875 26.542C29.4524 26.49 29.7071 26.3957 29.942 26.2627Z" fill="#2F2C2B"/>
<path d="M66.4095 30.0145C66.0135 28.7973 65.2006 27.851 64.6254 26.7338C63.8729 25.2748 63.8396 23.5552 63.0684 22.115C62.2972 20.6747 60.834 19.6701 59.3437 19.0823C56.6675 18.0256 54.8708 19.7076 52.3008 19.966C49.9518 20.1912 48.6575 18.1464 46.6336 17.419C44.937 16.8083 43.1091 17.3502 41.8001 18.5279C40.5724 19.6305 39.7971 21.3667 38.0588 21.7752C37.1584 21.9837 36.2225 21.9837 35.3158 22.1608C32.6896 22.6819 31.4953 24.612 29.7632 26.3941C28.8857 27.2966 27.8686 28.0615 27.2391 29.1745C26.3637 30.7294 27.31 32.5094 27.7581 34.0747C28.6981 37.3388 25.2215 38.4205 23.6041 40.5069C23.1456 41.0547 22.9091 41.7546 22.9413 42.4682C23.0017 43.1248 23.3581 43.7188 23.7354 44.2524C24.1127 44.786 24.5233 45.3258 24.715 45.9574C25.7051 49.2214 20.3276 51.1556 21.8845 54.8824C22.4014 56.1163 23.552 56.802 24.219 57.9317C25.2736 59.7284 24.269 62.0711 25.4862 63.7678C26.1407 64.6807 27.2558 65.0726 28.3271 65.2143C29.313 65.3456 30.8617 64.7557 31.6183 65.6582C32.1956 66.3461 32.2748 67.4424 32.8334 68.2053C33.4754 69.0828 34.3675 69.8039 35.445 70.0499C37.2542 70.4667 38.9133 68.9744 40.7017 69.8018C41.1977 70.0332 41.6271 70.3896 42.1107 70.6481C42.8047 71.0191 43.4134 70.7794 44.1616 70.7648C46.692 70.7085 48.6346 72.3051 50.7668 70.1812C51.6714 69.2787 52.4509 68.2219 53.4764 67.4382C54.6499 66.5357 56.8634 66.8567 57.5054 65.3081C57.7138 64.8224 57.7451 64.2889 57.8305 63.7699C58.0202 62.6047 58.758 61.4771 58.9248 60.2599C59.0457 59.3949 59.0436 57.4794 57.9056 57.2689C58.8393 57.4419 59.573 56.0183 59.6793 55.3034C59.8189 54.3446 59.5188 53.3817 59.2228 52.4583C59.4565 52.3565 59.7091 52.3058 59.964 52.3093C60.2188 52.3129 60.4699 52.3708 60.7006 52.4792C61.5864 51.0723 59.646 49.5049 59.3291 48.2063C58.929 46.5743 58.7038 45.0382 57.7847 43.6021C56.9739 42.3515 55.9942 40.5798 57.2448 39.2542C58.0244 38.4205 58.4662 38.2121 58.435 36.9761C58.3915 36.5268 58.4375 36.0734 58.5704 35.6421C59.1207 34.2394 61.0987 35.0168 62.1492 35.1502C64.7713 35.5025 67.2328 32.5428 66.4095 30.0145ZM35.247 24.3118L36.0432 24.02C35.7806 24.1222 35.5138 24.2201 35.247 24.3118Z" fill="#2F2C2B"/>
<path d="M44.041 66.7356L44.0681 66.7981C44.0655 66.775 44.0561 66.7532 44.041 66.7356Z" fill="#E3B764"/>
<path d="M62.3264 57.0877C63.7004 55.7366 63.3871 53.1902 61.6268 51.4001C59.8665 49.61 57.3256 49.2541 55.9516 50.6053C54.5777 51.9564 54.8909 54.5029 56.6512 56.2929C58.4116 58.083 60.9524 58.4389 62.3264 57.0877Z" fill="#BD7B63"/>
<path d="M57.9875 53.2721C58.3335 53.1325 58.6836 53.343 58.9358 53.5806C59.0588 53.6914 59.1636 53.8208 59.2464 53.9641C59.2723 54.0281 59.303 54.0901 59.3381 54.1496C59.3381 54.2886 59.3902 54.2782 59.4944 54.1184C59.5453 54.1006 59.5895 54.0677 59.6211 54.0241C59.6528 53.9805 59.6704 53.9283 59.6716 53.8745C59.8133 53.3659 59.0234 53.1492 58.8816 53.6661C58.7482 54.1413 58.8003 54.7645 59.386 54.8979C59.9717 55.0313 60.2614 54.481 60.1406 53.9891C59.9134 53.0845 58.7232 52.1133 57.7707 52.4905C57.2871 52.6864 57.4997 53.4806 57.9791 53.2805L57.9875 53.2721Z" fill="#2F2C2B"/>
<path d="M67.515 47.8592C67.2449 48.238 67.1059 48.6947 67.119 49.1598C67.1336 49.5641 67.2441 50.1311 67.6859 50.2749C68.082 50.402 68.453 50.0665 68.4926 49.6809C68.5426 49.2119 68.1299 48.918 67.7172 48.8263C67.2045 48.7137 66.9835 49.5037 67.5088 49.6162C67.5707 49.626 67.631 49.6442 67.688 49.6704C67.9777 49.6809 68.0799 49.6037 67.9903 49.4349C67.9903 49.314 67.9423 49.1765 67.9465 49.0493C67.9608 48.7682 68.0596 48.498 68.23 48.274C68.5343 47.8404 67.8256 47.4402 67.5234 47.8571L67.515 47.8592Z" fill="#2F2C2B"/>
<path d="M65.9134 45.3678C66.7456 45.0855 67.4811 44.574 68.0353 43.8921C68.3625 43.4752 67.7872 42.902 67.4558 43.3127C67.0002 43.8915 66.3904 44.33 65.6967 44.5778C65.2006 44.7508 65.4132 45.5429 65.9051 45.3678H65.9134Z" fill="#2F2C2B"/>
<path d="M68.2058 59.0181C68.5114 58.6882 68.9086 58.4571 69.3465 58.3546C69.7844 58.252 70.2429 58.2828 70.6632 58.4429C71.1614 58.62 71.3761 57.828 70.8821 57.6508C70.322 57.4537 69.7167 57.4231 69.1396 57.563C68.5625 57.7028 68.0383 58.007 67.6305 58.4387C67.2679 58.8201 67.839 59.4016 68.21 59.0181H68.2058Z" fill="#2F2C2B"/>
<path d="M61.3779 71.1276C62.2966 71.3602 63.2277 71.5412 64.1667 71.6695C64.6815 71.7404 64.9046 70.9504 64.3751 70.8795C63.4362 70.751 62.5051 70.5701 61.5863 70.3376C61.0757 70.2084 60.8568 70.9984 61.3779 71.1276Z" fill="#2F2C2B"/>
<path d="M14.707 94.3115C14.707 94.3115 49.9548 76.1551 91.3408 92.7107C91.3408 92.7107 90.678 117.895 85.6923 136.239C83.982 142.482 83.3719 148.974 83.8894 155.425L84.7669 177.544C84.7868 178.077 84.6991 178.607 84.509 179.105C84.3189 179.603 84.0303 180.057 83.6606 180.441C83.2909 180.824 82.8475 181.129 82.3572 181.337C81.8668 181.546 81.3394 181.653 80.8067 181.652H17.7397C16.7439 181.651 15.7854 181.274 15.0549 180.597C14.3245 179.92 13.8758 178.993 13.7983 178.001C13.4794 173.665 16.2265 161.951 15.77 152.737C14.6653 130.46 10.7302 103.885 14.707 94.3115Z" fill="#F56767"/>
<path d="M136.248 98.7732C136.188 98.0384 135.891 97.3429 135.403 96.7904C134.914 96.2379 134.261 95.8579 133.539 95.7072L127.307 94.3858C126.46 94.2066 125.576 94.3548 124.834 94.8007C124.092 95.2466 123.546 95.957 123.307 96.789C122.584 99.2901 121.517 103.361 120.339 109.049C118.203 119.372 114.294 137.175 114.294 137.175C114.294 137.175 110.682 122.609 106.284 110.629C101.122 96.5659 91.3379 92.7037 91.3379 92.7037L81.7334 126.649C81.7334 126.649 85.9937 168.504 114.832 167.437C140.373 166.49 137.289 111.362 136.248 98.7732Z" fill="#F56767"/>
<path d="M35.6459 80.1864C29.4159 85.8828 31.346 93.5385 31.346 93.5385L75.2602 89.7992C68.257 75.0361 41.8759 74.4921 35.6459 80.1864Z" fill="#F56767"/>
<path d="M80.0174 129.987L86.3892 145.486C86.5851 145.968 87.3792 145.755 87.1791 145.278L80.8074 129.775C80.6114 129.295 79.8173 129.506 80.0174 129.983V129.987Z" fill="#2F2C2B"/>
<path d="M113.278 135.32C113.736 137.53 114.417 139.687 115.311 141.759C115.519 142.242 116.223 141.825 116.017 141.342C115.159 139.332 114.506 137.24 114.068 135.099C113.962 134.582 113.172 134.801 113.278 135.308V135.32Z" fill="#2F2C2B"/>
<path d="M127.202 0.000125224C122.69 -0.012098 118.221 0.870635 114.053 2.59724C109.884 4.32384 106.1 6.86002 102.918 10.059L107.591 14.732C112.792 9.53113 119.847 6.60934 127.202 6.60934C134.558 6.60934 141.612 9.53113 146.813 14.732L151.487 10.059C148.305 6.86002 144.52 4.32384 140.352 2.59724C136.183 0.870635 131.714 -0.012098 127.202 0.000125224Z" fill="#B1B1B1"/>
<path d="M112.235 19.3692L116.908 24.0422C119.643 21.3159 123.347 19.785 127.209 19.785C131.071 19.785 134.775 21.3159 137.51 24.0422L142.183 19.3692C138.208 15.4042 132.823 13.1775 127.209 13.1775C121.595 13.1775 116.21 15.4042 112.235 19.3692Z" fill="#B1B1B1"/>
<path d="M127.202 26.1394C126.125 26.1373 125.058 26.3486 124.063 26.7611C123.068 27.1736 122.165 27.7791 121.405 28.5426L124.719 31.8567L127.206 34.3433L129.692 31.8567L133.007 28.5426C132.246 27.7781 131.341 27.172 130.345 26.7595C129.348 26.347 128.28 26.1362 127.202 26.1394Z" fill="#B1B1B1"/>
<path d="M133.694 40.7684L131.408 38.4825C131.068 38.1423 130.516 38.1423 130.176 38.4825L120.712 47.946C120.372 48.2862 120.372 48.8378 120.712 49.1781L122.998 51.464C123.339 51.8042 123.89 51.8042 124.231 51.464L133.694 42.0005C134.034 41.6603 134.034 41.1087 133.694 40.7684Z" fill="#D05C60"/>
<path d="M131.407 51.4613L133.693 49.1754C134.033 48.8351 134.033 48.2835 133.693 47.9433L124.229 38.4798C123.889 38.1396 123.337 38.1396 122.997 38.4798L120.711 40.7657C120.371 41.106 120.371 41.6576 120.711 41.9978L130.175 51.4613C130.515 51.8015 131.066 51.8015 131.407 51.4613Z" fill="#D05C60"/>
<path d="M121.012 68.194H128.622C129.15 68.194 129.15 67.3749 128.622 67.3749H121.012C120.485 67.3749 120.483 68.194 121.012 68.194Z" fill="white"/>
<path d="M120.596 72.118H128.206C128.301 72.0999 128.387 72.0491 128.449 71.9743C128.511 71.8996 128.545 71.8055 128.545 71.7084C128.545 71.6114 128.511 71.5173 128.449 71.4425C128.387 71.3678 128.301 71.317 128.206 71.2989H120.596C120.068 71.2989 120.068 72.118 120.596 72.118Z" fill="white"/>
<path d="M120.181 76.0273H127.79C128.318 76.0273 128.32 75.2081 127.79 75.2081H120.181C119.653 75.2081 119.653 76.0273 120.181 76.0273Z" fill="white"/>
</svg>
