<svg width="50" height="50" viewBox="0 0 50 50" fill="none" xmlns="http://www.w3.org/2000/svg">
<path d="M34.3164 31.3095L25 40.6255L15.6836 31.3095C8.70117 31.6122 3.125 37.3248 3.125 44.3753V45.3127C3.125 47.9005 5.22461 50 7.8125 50H42.1875C44.7754 50 46.875 47.9005 46.875 45.3127V44.3753C46.875 37.3248 41.2988 31.6122 34.3164 31.3095ZM4.45312 7.79503L5.07812 7.94151V13.6444C4.39453 14.0545 3.90625 14.7673 3.90625 15.6267C3.90625 16.4469 4.35547 17.1305 4.99023 17.5504L3.4668 23.6341C3.30078 24.3079 3.67188 25.0012 4.20898 25.0012H8.29102C8.82812 25.0012 9.19922 24.3079 9.0332 23.6341L7.50977 17.5504C8.14453 17.1305 8.59375 16.4469 8.59375 15.6267C8.59375 14.7673 8.10547 14.0545 7.42188 13.6444V8.50788L13.8672 10.0605C13.0273 11.7401 12.5 13.6151 12.5 15.6267C12.5 22.5306 18.0957 28.1261 25 28.1261C31.9043 28.1261 37.5 22.5306 37.5 15.6267C37.5 13.6151 36.9824 11.7401 36.1328 10.0605L45.5371 7.79503C47.3145 7.36536 47.3145 5.14867 45.5371 4.71901L26.9434 0.22704C25.6738 -0.0756799 24.3359 -0.0756799 23.0664 0.22704L4.45312 4.70924C2.68555 5.13891 2.68555 7.36536 4.45312 7.79503Z" fill="#3E8181"/>
</svg>
