<svg width="16" height="16" viewBox="0 0 16 16" fill="none" xmlns="http://www.w3.org/2000/svg">
<path d="M15.3263 0.15031C14.7536 0.0526369 14.1737 0.00236115 13.5926 3.44141e-06C11.6099 -0.00160601 9.66857 0.561336 8 1.62173C6.32714 0.575259 4.38612 0.0261336 2.40742 0.0395577C1.82631 0.0419154 1.2464 0.0921911 0.673721 0.189864C0.486135 0.221886 0.31626 0.319173 0.194687 0.464206C0.0731141 0.609239 0.00783323 0.792487 0.0106005 0.980949V10.474C0.00888945 10.5902 0.0330717 10.7054 0.0814265 10.8113C0.129781 10.9173 0.201121 11.0113 0.290368 11.0869C0.379615 11.1624 0.484577 11.2175 0.597786 11.2483C0.710995 11.2791 0.829667 11.2848 0.94536 11.2651C2.09026 11.0688 3.26325 11.1013 4.39524 11.3608C5.52723 11.6203 6.59532 12.1015 7.53662 12.776L7.63249 12.8314H7.72037C7.80897 12.868 7.90401 12.8868 8 12.8868C8.09599 12.8868 8.19103 12.868 8.27963 12.8314H8.36751L8.46339 12.776C9.39811 12.0864 10.4631 11.5897 11.5953 11.3152C12.7276 11.0407 13.9039 10.994 15.0546 11.178C15.1703 11.1978 15.289 11.1921 15.4022 11.1613C15.5154 11.1305 15.6204 11.0754 15.7096 10.9998C15.7989 10.9243 15.8702 10.8302 15.9186 10.7243C15.9669 10.6184 15.9911 10.5032 15.9894 10.3869V0.893929C15.9811 0.713684 15.9108 0.541668 15.7902 0.406414C15.6696 0.27116 15.5059 0.180795 15.3263 0.15031ZM7.20106 10.6638C5.72293 9.89386 4.07762 9.492 2.40742 9.49302C2.14377 9.49302 1.88012 9.49302 1.60848 9.49302V1.58217C1.87457 1.56699 2.14133 1.56699 2.40742 1.58217C4.11187 1.58031 5.77912 2.07557 7.20106 3.00613V10.6638ZM14.3915 9.52467C14.1199 9.52467 13.8562 9.52467 13.5926 9.52467C11.9224 9.52365 10.2771 9.9255 8.79894 10.6955V3.00613C10.2209 2.07557 11.8881 1.58031 13.5926 1.58217C13.8587 1.56699 14.1254 1.56699 14.3915 1.58217V9.52467ZM15.3263 12.8077C14.7536 12.71 14.1737 12.6597 13.5926 12.6574C11.6099 12.6558 9.66857 13.2187 8 14.2791C6.33143 13.2187 4.3901 12.6558 2.40742 12.6574C1.82631 12.6597 1.2464 12.71 0.673721 12.8077C0.569721 12.824 0.470009 12.8605 0.38032 12.9152C0.290631 12.9698 0.212733 13.0415 0.151107 13.126C0.0894815 13.2106 0.0453428 13.3063 0.0212294 13.4078C-0.00288391 13.5093 -0.0064961 13.6145 0.0106005 13.7174C0.0512016 13.9228 0.172378 14.104 0.347586 14.2211C0.522793 14.3383 0.737747 14.3819 0.94536 14.3424C2.09026 14.1461 3.26325 14.1787 4.39524 14.4382C5.52723 14.6977 6.59532 15.1788 7.53662 15.8533C7.67192 15.9487 7.8339 16 8 16C8.1661 16 8.32808 15.9487 8.46339 15.8533C9.40468 15.1788 10.4728 14.6977 11.6048 14.4382C12.7368 14.1787 13.9097 14.1461 15.0546 14.3424C15.2623 14.3819 15.4772 14.3383 15.6524 14.2211C15.8276 14.104 15.9488 13.9228 15.9894 13.7174C16.0065 13.6145 16.0029 13.5093 15.9788 13.4078C15.9547 13.3063 15.9105 13.2106 15.8489 13.126C15.7873 13.0415 15.7094 12.9698 15.6197 12.9152C15.53 12.8605 15.4303 12.824 15.3263 12.8077V12.8077Z" fill="#3E8080"/>
</svg>
