<svg width="119" height="50" viewBox="0 0 119 50" fill="none" xmlns="http://www.w3.org/2000/svg">
<path d="M33.3601 31.9771L33.3645 31.1586L33.3339 31.1165C33.2159 28.3617 32.5517 25.8314 31.3325 23.535C29.9822 20.9906 28.208 18.8953 26.0186 17.2443C24.6858 16.2901 23.2306 15.5418 21.6574 14.9899C20.0842 14.4427 18.4237 14.1667 16.6801 14.1667C14.4208 14.1667 12.2839 14.6251 10.265 15.5418C8.24608 16.4585 6.47625 17.7213 4.95114 19.3303C3.4304 20.9439 2.21993 22.8287 1.33283 24.9895C0.441365 27.1504 0 29.4936 0 32.0239C0 34.5168 0.436995 36.8413 1.30661 39.0021C2.1806 41.1629 3.37796 43.0478 4.8987 44.6614C6.41944 46.275 8.19364 47.5472 10.2125 48.4826C12.2315 49.418 14.3858 49.881 16.6801 49.881C18.9393 49.881 21.085 49.4133 23.1214 48.4826C24.6333 47.7904 25.9837 46.8924 27.1985 45.8213L21.8235 39.9141C21.7754 39.9469 21.7317 39.989 21.6836 40.0217C20.1935 41.1021 18.5285 41.64 16.6801 41.64C15.4128 41.64 14.2329 41.3828 13.1404 40.8683C12.0436 40.3538 11.0953 39.6709 10.2912 38.8057C9.48714 37.9451 8.8535 36.9302 8.39028 35.7562C7.92707 34.5869 7.69546 33.3382 7.69546 32.0192C7.69546 30.7003 7.92707 29.4562 8.39028 28.2822C8.8535 27.1083 9.49151 26.084 10.3131 25.2047C11.1346 24.3254 12.0916 23.6379 13.1885 23.1421C14.281 22.6463 15.4477 22.4031 16.6801 22.4031C17.8774 22.4031 19.018 22.6463 20.093 23.1421C21.1724 23.6379 22.1206 24.316 22.9422 25.1766C23.6457 25.9156 24.3493 26.7762 24.8169 27.8426H11.187V35.658H33.3295L33.3557 32.1174C33.3557 32.0847 33.3557 32.0473 33.3557 32.0099C33.3601 32.0099 33.3601 31.9958 33.3601 31.9771Z" fill="#3E8181"/>
<path d="M61.0328 0H68.7309V32.0913C68.7309 34.6269 68.2856 36.9891 67.3948 39.1732C66.504 41.3573 65.2945 43.2508 63.7793 44.8491C62.251 46.4473 60.4826 47.7081 58.4653 48.622C56.4436 49.5454 54.3084 50 52.0509 50C49.7934 50 47.6407 49.5313 45.6103 48.5939C43.5711 47.6612 41.7983 46.3817 40.2962 44.7647C38.7898 43.1477 37.5934 41.2589 36.7026 39.0889C35.8118 36.9235 35.3665 34.5894 35.3665 32.0913C35.3665 29.6307 35.8031 27.3106 36.6764 25.1219C37.5497 22.9378 38.7461 21.0349 40.27 19.4179C41.794 17.8009 43.5624 16.5261 45.5797 15.5887C47.6014 14.656 49.7541 14.1826 52.0509 14.1826C53.6927 14.1826 55.2734 14.431 56.7973 14.9278C58.3212 15.4199 59.7316 16.1136 61.0328 16.9948V0ZM60.3123 35.8361C60.7883 34.6269 61.0284 33.3802 61.0284 32.0913C61.0284 30.7696 60.797 29.5276 60.3385 28.3699C59.8757 27.2122 59.2425 26.1952 58.4391 25.314C57.6313 24.4329 56.6837 23.7345 55.5878 23.219C54.4961 22.7081 53.3128 22.4503 52.0465 22.4503C50.7802 22.4503 49.6013 22.7081 48.5053 23.219C47.4136 23.7345 46.4574 24.4329 45.6583 25.314C44.8549 26.1952 44.2217 27.2263 43.7589 28.398C43.296 29.5744 43.069 30.8071 43.069 32.0913C43.069 33.4833 43.3179 34.7722 43.8113 35.9486C44.3047 37.125 44.9684 38.1374 45.7893 38.9764C46.6102 39.8247 47.5577 40.4949 48.6363 40.9871C49.7148 41.4839 50.8501 41.7276 52.0509 41.7276C53.9328 41.7276 55.6096 41.1792 57.0811 40.0778C58.5482 38.9764 59.6268 37.5656 60.3123 35.8361Z" fill="#3E8181"/>
<path d="M97.71 0H105.432V32.0913C105.432 34.6269 104.985 36.9891 104.091 39.1732C103.198 41.3573 101.985 43.2508 100.461 44.8491C98.932 46.4473 97.1537 47.7081 95.1302 48.622C93.1023 49.5454 90.9605 50 88.6917 50C86.4273 50 84.2724 49.5313 82.2313 48.5939C80.1903 47.6612 78.412 46.3817 76.901 44.7647C75.3899 43.1477 74.1898 41.2589 73.2963 39.0889C72.4028 36.9235 71.9561 34.5894 71.9561 32.0913C71.9561 29.6307 72.394 27.3106 73.27 25.1219C74.1416 22.9378 75.3461 21.0349 76.8747 19.4179C78.4033 17.8009 80.1772 16.5261 82.2007 15.5887C84.2286 14.656 86.3879 14.1826 88.6873 14.1826C90.3342 14.1826 91.9197 14.431 93.4483 14.9278C94.9769 15.4199 96.3916 16.1136 97.6968 16.9948V0H97.71ZM96.9916 35.8361C97.4691 34.6269 97.71 33.3802 97.71 32.0913C97.71 30.7696 97.4778 29.5276 97.0136 28.3699C96.5493 27.2122 95.9142 26.1952 95.1083 25.314C94.3024 24.4329 93.3476 23.7345 92.2482 23.219C91.1532 22.7081 89.9663 22.4503 88.6961 22.4503C87.4259 22.4503 86.2433 22.7081 85.144 23.219C84.049 23.7345 83.0898 24.4329 82.2883 25.314C81.4824 26.1952 80.8473 27.2263 80.383 28.398C79.9187 29.5744 79.691 30.8071 79.691 32.0913C79.691 33.4833 79.9406 34.7722 80.4356 35.9486C80.9305 37.125 81.5962 38.1374 82.4197 38.9764C83.2431 39.8247 84.1979 40.4949 85.2754 40.9871C86.3572 41.4839 87.5004 41.7276 88.7005 41.7276C90.5882 41.7276 92.2701 41.1792 93.7461 40.0778C95.2222 38.9764 96.304 37.5656 96.9916 35.8361Z" fill="#3E8181"/>
<path d="M110.214 14.5239H117.888V49.4049H110.214V14.5239Z" fill="#3E8181"/>
<path d="M114.162 0.476074C116.846 0.476074 119 2.78651 119 5.65465C119 8.52746 116.841 10.8332 114.162 10.8332C111.483 10.8332 109.324 8.52278 109.324 5.65465C109.324 2.78651 111.483 0.476074 114.162 0.476074Z" fill="#3E8181"/>
</svg>
